<svg xmlns="http://www.w3.org/2000/svg" viewBox="0 0 103.93 103.93"><defs><style>.cls-1{fill:#29235c;}.cls-2{fill:#cce6f4;}</style></defs><g id="Layer_2" data-name="Layer 2"><g id="Layer_1-2" data-name="Layer 1"><path class="cls-1" d="M52,2.14A49.83,49.83,0,1,1,2.14,52,49.83,49.83,0,0,1,52,2.14M52,0A52,52,0,0,0,15.22,88.71,52,52,0,0,0,88.71,15.22,51.67,51.67,0,0,0,52,0"/><path class="cls-1" d="M11,65.64l-.33-1.06.24-.08a.5.5,0,0,0,.11.19.46.46,0,0,0,.21.09l.38,0,3.26.1.15.49-2.64,1.92a1.34,1.34,0,0,0-.34.33.34.34,0,0,0-.06.3l-.24.08-.46-1.5.24-.07a.61.61,0,0,0,0,.12.14.14,0,0,0,.08.09.18.18,0,0,0,.13,0l.18-.09.22-.14.38-.26.13-.08L14,65.2v0l-1.64,0h-.87l-.17,0c-.09,0-.14.07-.15.13a.77.77,0,0,0,0,.26Zm1.51.65-.38-1.2h.32l.33,1Z"/><path class="cls-1" d="M12.58,70.15l-.66-1.53.24-.1a.79.79,0,0,0,.14.25.22.22,0,0,0,.2.06,1.08,1.08,0,0,0,.34-.1L15,67.8a1.72,1.72,0,0,0,.25-.14.25.25,0,0,0,.08-.18.81.81,0,0,0-.08-.28l.23-.1.63,1.46a2.1,2.1,0,0,1,.16.62,1,1,0,0,1-.09.55,1,1,0,0,1-.48.4,1.08,1.08,0,0,1-.53.1.79.79,0,0,1-.4-.13,1.37,1.37,0,0,1-.3-.29l0,0a.92.92,0,0,1-.11.23l-.27.37-.49.66a.53.53,0,0,0-.13.31.74.74,0,0,0,.06.28l-.23.1-.44-1,.43-.49.28-.31.2-.24.19-.23a.36.36,0,0,0,.11-.18.38.38,0,0,0-.05-.19L14,69l-.84.36a1.37,1.37,0,0,0-.31.17.23.23,0,0,0-.09.18,1.21,1.21,0,0,0,.09.3Zm1.65-1.23.07.18a1.1,1.1,0,0,0,.25.33.5.5,0,0,0,.33.14,1.33,1.33,0,0,0,.49-.12.89.89,0,0,0,.44-.35.55.55,0,0,0,0-.53.61.61,0,0,0-.07-.14l-.06-.13Z"/><path class="cls-1" d="M14,73.11l-.54-1,.22-.12a.38.38,0,0,0,.14.16.49.49,0,0,0,.23,0l.37,0,3.21-.57.25.45-2.2,2.42a1.73,1.73,0,0,0-.27.39.34.34,0,0,0,0,.31l-.23.12-.75-1.37.22-.13a.41.41,0,0,0,.07.11.2.2,0,0,0,.1.08A.17.17,0,0,0,15,74a.92.92,0,0,0,.16-.12l.19-.18.31-.33.12-.11,1.13-1.15h0l-1.61.29-.15,0-.53.1-.17,0a.76.76,0,0,0-.16.06q-.12.07-.12.15a.58.58,0,0,0,.09.25Zm1.61.33L15,72.34l.31-.07.52,1Z"/><path class="cls-1" d="M16.5,77.22l-1-1.42.2-.15a.89.89,0,0,0,.2.22.2.2,0,0,0,.2,0,1,1,0,0,0,.3-.17l1.92-1.31a1.27,1.27,0,0,0,.26-.22.22.22,0,0,0,0-.19,1.11,1.11,0,0,0-.14-.25l.22-.15L19.65,75a1.85,1.85,0,0,1,.31.64.69.69,0,0,1-.05.48,1,1,0,0,1-.32.35.85.85,0,0,1-.61.18,1.33,1.33,0,0,1-.54-.25l0,0a1.31,1.31,0,0,1,.12.41.85.85,0,0,1-.07.44,1.13,1.13,0,0,1-.4.43.92.92,0,0,1-.82.18,1.43,1.43,0,0,1-.74-.61m.09-.39.18.22a.37.37,0,0,0,.2.12.41.41,0,0,0,.27,0,1.54,1.54,0,0,0,.37-.2,1.13,1.13,0,0,0,.38-.38.46.46,0,0,0,.05-.34,1,1,0,0,0-.14-.3l-.16-.24-1.29.88.07.12a.75.75,0,0,0,.07.12m2.52-2.06L18,75.53l.13.2c.14.2.27.31.41.31a1.16,1.16,0,0,0,.86-.59.63.63,0,0,0-.14-.5l-.07-.09-.08-.09"/><path class="cls-1" d="M19.49,81.15A1.45,1.45,0,0,1,19,80.09a1.69,1.69,0,0,1,.66-1L20.92,78a.92.92,0,0,0,.22-.24.24.24,0,0,0,0-.2.68.68,0,0,0-.16-.25l.19-.17,1.09,1.23-.19.17a.71.71,0,0,0-.23-.19.23.23,0,0,0-.21,0,1.14,1.14,0,0,0-.27.2l-1.14,1a2.57,2.57,0,0,0-.43.48.77.77,0,0,0-.12.45.93.93,0,0,0,.24.46.79.79,0,0,0,.63.33,1.29,1.29,0,0,0,.78-.41l1-.89a3.56,3.56,0,0,0,.34-.34.27.27,0,0,0,.08-.24.57.57,0,0,0-.15-.27l.19-.16.84.95-.19.16a.71.71,0,0,0-.25-.19.3.3,0,0,0-.25.05,3.62,3.62,0,0,0-.37.29l-1,.88a2.07,2.07,0,0,1-1.13.58,1.2,1.2,0,0,1-1-.5"/><path class="cls-1" d="M22.09,83.72l-.9-.83.17-.19a.32.32,0,0,0,.33.08.92.92,0,0,0,.37-.22,2.83,2.83,0,0,0,.4-.38l1.39-1.51.24.22-1.68,1.82a2.38,2.38,0,0,0-.27.35.24.24,0,0,0,0,.24.6.6,0,0,0,.16.23Zm1.46,1.39-.42-.38.69-3.51-.13-.12.09-.31a1.57,1.57,0,0,0,0-.27.38.38,0,0,0,0-.16.53.53,0,0,0-.12-.14l.17-.19.87.79L24.06,84l0,0,1.19-1.3a3.06,3.06,0,0,0,.26-.32.48.48,0,0,0,.09-.27.41.41,0,0,0-.18-.29l.18-.19.9.84-.17.18a.4.4,0,0,0-.29-.13.41.41,0,0,0-.26.12,2.44,2.44,0,0,0-.29.28Z"/><path class="cls-1" d="M25.6,86.69l-1.28-1,.16-.2a.68.68,0,0,0,.27.15.2.2,0,0,0,.2-.06,1.89,1.89,0,0,0,.26-.28l1.34-1.7a1.4,1.4,0,0,0,.2-.31.25.25,0,0,0,0-.22.5.5,0,0,0-.2-.23l.16-.2,1.28,1-.16.2a.59.59,0,0,0-.28-.15.26.26,0,0,0-.21.07l-.24.28-1.34,1.7a2.36,2.36,0,0,0-.22.31.2.2,0,0,0,0,.21.74.74,0,0,0,.2.22Z"/><path class="cls-1" d="M27.51,88.08l-.32-.21.8-3.25q0-.21.06-.33a.38.38,0,0,0,0-.22.47.47,0,0,0-.17-.18l.15-.21,1.35.92-.15.21-.14-.08a.17.17,0,0,0-.14,0,.21.21,0,0,0-.12.1,1,1,0,0,0-.14.3l-.38,1.55-.18.58,0,0,.48-.38,1.33-1L30,85.8a.52.52,0,0,0,.1-.11.21.21,0,0,0,0-.18.54.54,0,0,0-.17-.17l.14-.21.92.63L30.9,86a.51.51,0,0,0-.17-.08.3.3,0,0,0-.18,0,.92.92,0,0,0-.26.15l-.44.3Z"/><path class="cls-1" d="M31.65,90.54l-2.43-1.37.12-.22a1.43,1.43,0,0,0,.25.1.22.22,0,0,0,.19,0,1.06,1.06,0,0,0,.2-.26l1.15-2a1.8,1.8,0,0,0,.14-.31.27.27,0,0,0,0-.2A.91.91,0,0,0,31,86l.13-.23,2.39,1.35-.5.94L32.79,88a1.88,1.88,0,0,0,.13-.41.38.38,0,0,0-.07-.28.94.94,0,0,0-.33-.26L32,86.68l-.66,1.19.37.21a1.66,1.66,0,0,0,.33.15.19.19,0,0,0,.19,0,1.19,1.19,0,0,0,.19-.27l.2.11-.66,1.19-.2-.12a1.44,1.44,0,0,0,.15-.33.22.22,0,0,0-.06-.2,1.51,1.51,0,0,0-.29-.2l-.38-.21-.72,1.28.5.28a2.74,2.74,0,0,0,.36.17.54.54,0,0,0,.28,0,.67.67,0,0,0,.26-.14,2.44,2.44,0,0,0,.3-.28l.21.11Z"/><path class="cls-1" d="M33.85,91.58l-1.52-.69.11-.23a1.05,1.05,0,0,0,.27.09.23.23,0,0,0,.18-.09,1.12,1.12,0,0,0,.19-.31l1-2.15a1.05,1.05,0,0,0,.09-.27.2.2,0,0,0-.06-.18.77.77,0,0,0-.25-.16l.1-.23,1.45.65a2.1,2.1,0,0,1,.54.35,1,1,0,0,1,.3.47.94.94,0,0,1-.08.62,1.15,1.15,0,0,1-.32.43.86.86,0,0,1-.38.17,1.48,1.48,0,0,1-.42,0v0a.77.77,0,0,1,.07.24c0,.1,0,.26.05.46s0,.47.09.81a.5.5,0,0,0,.11.32.61.61,0,0,0,.24.17l-.11.23-1-.46v-.64c0-.17,0-.31,0-.42s0-.22,0-.31,0-.19,0-.3a.37.37,0,0,0,0-.21.62.62,0,0,0-.17-.11l-.09,0-.37.83a1.27,1.27,0,0,0-.12.34.23.23,0,0,0,.06.2,1.47,1.47,0,0,0,.27.16Zm.38-2,.17.08a1.1,1.1,0,0,0,.41.08.48.48,0,0,0,.34-.13,1.13,1.13,0,0,0,.28-.42.87.87,0,0,0,.09-.55.55.55,0,0,0-.36-.39L35,88.17l-.14,0Z"/><path class="cls-1" d="M36,92.59l-.19-.07.39-1.21.23.08a2.84,2.84,0,0,0,0,.61.66.66,0,0,0,.13.34.57.57,0,0,0,.28.18.8.8,0,0,0,.3.06.5.5,0,0,0,.27-.08.54.54,0,0,0,.19-.26.82.82,0,0,0,0-.43,1.19,1.19,0,0,0-.15-.35l-.26-.33c-.11-.14-.21-.27-.3-.41a1.1,1.1,0,0,1-.16-.46,1.37,1.37,0,0,1,.09-.6,1.08,1.08,0,0,1,.31-.47.78.78,0,0,1,.47-.18,1.25,1.25,0,0,1,.58.09,1.13,1.13,0,0,1,.27.14l.16.13a.28.28,0,0,0,.12.08h.09a.19.19,0,0,0,.09-.09l.18.06-.4,1.18-.21-.08a1.68,1.68,0,0,0,0-.8.55.55,0,0,0-.35-.36.51.51,0,0,0-.4,0,.44.44,0,0,0-.25.28.59.59,0,0,0,0,.37.9.9,0,0,0,.17.32,3.92,3.92,0,0,0,.27.33,3.92,3.92,0,0,1,.25.32,1.06,1.06,0,0,1,.18.35,1.11,1.11,0,0,1,.08.41,1.55,1.55,0,0,1-.09.49,1.21,1.21,0,0,1-.36.52.93.93,0,0,1-.53.22,1.52,1.52,0,0,1-.65-.1,1,1,0,0,1-.33-.17.69.69,0,0,1-.15-.14.25.25,0,0,0-.09-.09.15.15,0,0,0-.11,0,.24.24,0,0,0-.08.11"/><path class="cls-1" d="M40,93.82l-1.55-.47.07-.24a.8.8,0,0,0,.31,0A.22.22,0,0,0,39,93a2.05,2.05,0,0,0,.13-.35l.63-2.08a2.74,2.74,0,0,0,.08-.36.28.28,0,0,0-.07-.21.56.56,0,0,0-.27-.14l.07-.25,1.57.47-.08.25a.62.62,0,0,0-.31,0,.25.25,0,0,0-.17.15,2.77,2.77,0,0,0-.13.34l-.62,2.08a2.06,2.06,0,0,0-.09.36.21.21,0,0,0,.06.2.67.67,0,0,0,.27.13Z"/><path class="cls-1" d="M42.71,94.49l-1.63-.38.06-.24a1,1,0,0,0,.32,0,.21.21,0,0,0,.16-.13,1.91,1.91,0,0,0,.12-.38l.61-2.63-.21-.05a.82.82,0,0,0-.41,0,.45.45,0,0,0-.25.21,4.1,4.1,0,0,0-.22.46L41,91.32l.32-1.13,2.9.67L44,92,43.78,92a4.43,4.43,0,0,0,0-.52.46.46,0,0,0-.13-.3.85.85,0,0,0-.38-.16l-.21,0-.61,2.62a2,2,0,0,0-.06.4.22.22,0,0,0,.09.19.92.92,0,0,0,.29.11Z"/><path class="cls-1" d="M46.26,95.1l-1.69-.25,0-.25a1.2,1.2,0,0,0,.32,0,.18.18,0,0,0,.15-.12,1.52,1.52,0,0,0,.09-.37l.1-.66L44.81,92a4.13,4.13,0,0,0-.16-.47,1.25,1.25,0,0,0-.13-.26.45.45,0,0,0-.12-.12l-.15,0,0-.25,1.5.22,0,.26a.74.74,0,0,0-.25,0,.13.13,0,0,0-.07.1.74.74,0,0,0,0,.26l.27,1,.12.5h0l.8-1.33a.16.16,0,0,0,.05-.08.23.23,0,0,0,0-.09.13.13,0,0,0,0-.12.46.46,0,0,0-.22-.07l0-.25,1.1.16,0,.25a.57.57,0,0,0-.23,0,.34.34,0,0,0-.19.11,1.81,1.81,0,0,0-.24.3l-1,1.52-.1.65a1,1,0,0,0,0,.38.2.2,0,0,0,.12.17,1.26,1.26,0,0,0,.3.08Z"/><path class="cls-1" d="M50.17,95.5a1.49,1.49,0,0,1-.86-.27,1.45,1.45,0,0,1-.52-.71,3.11,3.11,0,0,1-.15-1.11,2.76,2.76,0,0,1,.24-1.06,1.53,1.53,0,0,1,.58-.67,1.38,1.38,0,0,1,.87-.21,1.56,1.56,0,0,1,.86.26,1.49,1.49,0,0,1,.52.7,2.8,2.8,0,0,1,.15,1,3.26,3.26,0,0,1-.23,1.11,1.59,1.59,0,0,1-.58.69,1.5,1.5,0,0,1-.88.22m0-.31a.66.66,0,0,0,.64-.39,3.29,3.29,0,0,0,.27-1.33,3.62,3.62,0,0,0-.07-.92,1.31,1.31,0,0,0-.28-.58.64.64,0,0,0-.45-.21.68.68,0,0,0-.62.41,2.75,2.75,0,0,0-.27,1.24,3.05,3.05,0,0,0,.16,1.3.66.66,0,0,0,.62.48"/><path class="cls-1" d="M54.15,95.4l-1.68.07v-.25a1.43,1.43,0,0,0,.28,0,.27.27,0,0,0,.13-.16,1,1,0,0,0,0-.33l-.1-2.36a.8.8,0,0,0,0-.31.2.2,0,0,0-.14-.14,1.06,1.06,0,0,0-.28,0v-.26l2.74-.11.08,1.08h-.25c0-.14-.06-.25-.08-.34a.51.51,0,0,0-.12-.22.45.45,0,0,0-.22-.1,1.42,1.42,0,0,0-.38,0l-.58,0,.06,1.39h.37a1.22,1.22,0,0,0,.33-.06.26.26,0,0,0,.18-.16,1.11,1.11,0,0,0,0-.36h.22l.06,1.38h-.23a.71.71,0,0,0-.07-.35.25.25,0,0,0-.18-.13,1.15,1.15,0,0,0-.33,0h-.38l0,1.08a.85.85,0,0,0,.06.29.26.26,0,0,0,.16.13,1.3,1.3,0,0,0,.31,0Z"/><path class="cls-1" d="M58.53,95l-1.6.25,0-.25a.76.76,0,0,0,.3-.09.21.21,0,0,0,.09-.19,1.43,1.43,0,0,0,0-.38l-.33-2.15a2.7,2.7,0,0,0-.08-.35.26.26,0,0,0-.15-.17.6.6,0,0,0-.31,0l0-.25L58,91.13l0,.25a.61.61,0,0,0-.31.11.29.29,0,0,0-.09.2,1.86,1.86,0,0,0,0,.36l.13.88,1.4-.21L59,91.84a2.31,2.31,0,0,0-.09-.36.28.28,0,0,0-.15-.17.63.63,0,0,0-.31,0l0-.26,1.63-.25,0,.25a.72.72,0,0,0-.31.11.29.29,0,0,0-.09.2,2.87,2.87,0,0,0,0,.36l.34,2.15a1.62,1.62,0,0,0,.08.37c0,.09.09.14.16.15a.78.78,0,0,0,.31,0l0,.25L59,94.89l0-.25a.76.76,0,0,0,.3-.09.21.21,0,0,0,.09-.19,3.46,3.46,0,0,0,0-.38L59.22,93l-1.4.22.15.94a1.62,1.62,0,0,0,.08.37.19.19,0,0,0,.15.15.69.69,0,0,0,.29,0Z"/><path class="cls-1" d="M64.07,93.8l-2.71.68-.06-.25.25-.09a.23.23,0,0,0,.1-.17.77.77,0,0,0,0-.32l-.57-2.28a2.24,2.24,0,0,0-.11-.32.21.21,0,0,0-.16-.12.88.88,0,0,0-.3,0l-.07-.25L63.08,90l.28,1-.24.07a1.77,1.77,0,0,0-.19-.39.4.4,0,0,0-.25-.16,1.09,1.09,0,0,0-.41,0l-.62.16L62,92.11,62.4,92a1.41,1.41,0,0,0,.34-.12.18.18,0,0,0,.1-.16,1,1,0,0,0-.05-.34l.23,0,.33,1.32-.23.06a2.49,2.49,0,0,0-.11-.35.22.22,0,0,0-.18-.11,1.49,1.49,0,0,0-.35.06l-.43.11.36,1.42L63,93.7a1.85,1.85,0,0,0,.38-.13.63.63,0,0,0,.21-.18.58.58,0,0,0,.09-.28,2.37,2.37,0,0,0,0-.41l.22-.06Z"/><path class="cls-1" d="M65.71,93.28l-1.06.37-.08-.24a.41.41,0,0,0,.18-.12.34.34,0,0,0,.08-.21,2,2,0,0,0,0-.38V89.44l.48-.17,2,2.59a1.27,1.27,0,0,0,.33.33.34.34,0,0,0,.31,0l.08.24L66.58,93l-.08-.24.11,0a.24.24,0,0,0,.09-.08.22.22,0,0,0,0-.14l-.1-.18-.14-.21-.27-.37-.09-.13-.94-1.31h0l0,1.64v.69c0,.05,0,.11,0,.17a.61.61,0,0,0,0,.17c0,.09.07.14.13.15a.57.57,0,0,0,.25,0Zm.6-1.52-1.19.41,0-.32,1-.36Z"/><path class="cls-1" d="M71.1,91.12l-2.53,1.13L68.46,92a.73.73,0,0,0,.26-.16.2.2,0,0,0,0-.2,1.39,1.39,0,0,0-.11-.33l-.92-2a1.72,1.72,0,0,0-.16-.31.24.24,0,0,0-.19-.11.74.74,0,0,0-.3.08l-.1-.23L68.51,88l.1.23a.72.72,0,0,0-.26.18.25.25,0,0,0-.06.21,2.39,2.39,0,0,0,.12.34l1,2.13c.06.14.12.21.19.23a.45.45,0,0,0,.29-.06l.27-.12A1.11,1.11,0,0,0,70.4,91a.54.54,0,0,0,.15-.22,1,1,0,0,0,0-.31,3.22,3.22,0,0,0-.08-.44l.23-.1Z"/><path class="cls-1" d="M73.47,89.87l-1.47.8-.12-.23a1.39,1.39,0,0,0,.26-.18.25.25,0,0,0,0-.21,1.45,1.45,0,0,0-.16-.37l-1.27-2.37-.2.1a1,1,0,0,0-.31.26.39.39,0,0,0,0,.32,3.33,3.33,0,0,0,.14.5l-.22.11-.5-1,2.62-1.41.59,1-.22.12a2.94,2.94,0,0,0-.34-.39.42.42,0,0,0-.29-.14.93.93,0,0,0-.39.12l-.19.11,1.27,2.37a1.66,1.66,0,0,0,.22.33.21.21,0,0,0,.19.09,1,1,0,0,0,.29-.11Z"/><path class="cls-1" d="M76,88.33l-1.35.9L74.5,89a1,1,0,0,0,.23-.2.22.22,0,0,0,0-.21,2.69,2.69,0,0,0-.19-.34l-1.21-1.8a2.45,2.45,0,0,0-.21-.3.3.3,0,0,0-.21-.09.76.76,0,0,0-.29.13L72.49,86l1.36-.91.15.21a.75.75,0,0,0-.24.22.25.25,0,0,0,0,.22,1.59,1.59,0,0,0,.18.32l.5.74L75.62,86l-.49-.74A1.62,1.62,0,0,0,74.9,85a.28.28,0,0,0-.2-.09.63.63,0,0,0-.29.13l-.14-.22,1.37-.91.14.21a.69.69,0,0,0-.23.22.3.3,0,0,0,0,.23c0,.08.1.18.18.31l1.21,1.81a1.87,1.87,0,0,0,.23.3.21.21,0,0,0,.2.07.67.67,0,0,0,.28-.13l.14.21L76.42,88l-.14-.21a1.12,1.12,0,0,0,.24-.2.2.2,0,0,0,0-.21,1.78,1.78,0,0,0-.19-.34l-.53-.79-1.17.79.52.79c.1.14.18.24.24.31a.21.21,0,0,0,.19.07.8.8,0,0,0,.27-.13Z"/><path class="cls-1" d="M79.43,85.92l-.16.14-.85-1L78.6,85a4,4,0,0,0,.51.34.62.62,0,0,0,.36.06.71.71,0,0,0,.3-.15A1.07,1.07,0,0,0,80,85a.49.49,0,0,0-.07-.57.74.74,0,0,0-.35-.25,1,1,0,0,0-.38,0l-.41.06-.51,0a1,1,0,0,1-.48-.09,1.27,1.27,0,0,1-.47-.37,1.1,1.1,0,0,1-.25-.51.83.83,0,0,1,.07-.49,1.32,1.32,0,0,1,.37-.46.88.88,0,0,1,.26-.17l.19-.07.13-.06a.22.22,0,0,0,.05-.08.17.17,0,0,0,0-.13l.14-.12.83.93-.18.15a1.73,1.73,0,0,0-.7-.39.65.65,0,0,0-.71.47.43.43,0,0,0,.12.35.66.66,0,0,0,.31.21,1.13,1.13,0,0,0,.37,0l.42-.07a2.63,2.63,0,0,1,.39-.06,1.33,1.33,0,0,1,.4,0,1,1,0,0,1,.4.14,1.35,1.35,0,0,1,.37.32,1.17,1.17,0,0,1,.28.57,1,1,0,0,1-.08.57,1.38,1.38,0,0,1-.41.51,1.18,1.18,0,0,1-.3.2l-.21.06a.21.21,0,0,0-.12,0,.11.11,0,0,0,0,.1.21.21,0,0,0,.05.12"/><path class="cls-1" d="M82.57,83.1a1.38,1.38,0,0,1-.8.43,1.43,1.43,0,0,1-.85-.14,2.68,2.68,0,0,1-.83-.61,2.59,2.59,0,0,1-.65-1,1.53,1.53,0,0,1-.07-.89,1.51,1.51,0,0,1,.46-.77,1.3,1.3,0,0,1,.32-.26l.23-.09a.27.27,0,0,0,.15-.08.12.12,0,0,0,0-.12l-.06-.13.15-.14,1,1-.17.17a1.85,1.85,0,0,0-.83-.37.73.73,0,0,0-.64.22.72.72,0,0,0-.19.75,2.53,2.53,0,0,0,.68,1,2.82,2.82,0,0,0,.7.55.83.83,0,0,0,.59.12,1,1,0,0,0,.52-.28,1.09,1.09,0,0,0,.31-.53,1.78,1.78,0,0,0,0-.61h.23A4.79,4.79,0,0,1,83,82a1.51,1.51,0,0,1,0,.56,1.41,1.41,0,0,1-.37.55"/><path class="cls-1" d="M85,80.42,83.9,81.63l-.19-.17a.75.75,0,0,0,.17-.26.23.23,0,0,0,0-.2,1.68,1.68,0,0,0-.27-.27l-1.62-1.44a1.84,1.84,0,0,0-.3-.22.25.25,0,0,0-.22,0,.53.53,0,0,0-.24.19L81,79.06l1.08-1.22.19.16a.67.67,0,0,0-.16.27.23.23,0,0,0,.06.22,3.15,3.15,0,0,0,.26.26L84,80.18l.3.24a.27.27,0,0,0,.21,0,.74.74,0,0,0,.23-.2Z"/><path class="cls-1" d="M87.06,77.77,85.36,80l-.2-.15a1.14,1.14,0,0,0,.13-.23.21.21,0,0,0,0-.2.89.89,0,0,0-.22-.23l-1.86-1.43a1.54,1.54,0,0,0-.29-.18.23.23,0,0,0-.2,0,1,1,0,0,0-.21.21l-.21-.15L84,75.44l.86.63-.15.2a2.06,2.06,0,0,0-.39-.18.41.41,0,0,0-.29,0,1.13,1.13,0,0,0-.3.29l-.4.51,1.08.83.27-.34a1.28,1.28,0,0,0,.19-.31.19.19,0,0,0,0-.19,1.17,1.17,0,0,0-.25-.23l.14-.18,1.08.83-.14.18a1.68,1.68,0,0,0-.3-.2.2.2,0,0,0-.21,0,1.27,1.27,0,0,0-.24.26l-.27.34,1.17.9.35-.46a1.28,1.28,0,0,0,.21-.33.48.48,0,0,0,.06-.27.68.68,0,0,0-.1-.28,2.43,2.43,0,0,0-.24-.34l.14-.19Z"/><path class="cls-1" d="M89.27,74.43,89,74.9l-3.58,0-.09.15L85,75a.94.94,0,0,0-.26,0,.39.39,0,0,0-.16.07.58.58,0,0,0-.11.15l-.22-.14.62-1,3.27,0v0l-1.49-.94L86.29,73a.45.45,0,0,0-.29,0,.42.42,0,0,0-.25.22L85.53,73l.65-1,.22.14a.38.38,0,0,0-.08.3.41.41,0,0,0,.16.24,2.35,2.35,0,0,0,.33.23Zm-1.1,1.68-.65,1L87.31,77a.33.33,0,0,0,0-.33,1.07,1.07,0,0,0-.29-.33,3.25,3.25,0,0,0-.45-.32l-1.73-1.09.17-.27L87.13,76a2.64,2.64,0,0,0,.39.21.28.28,0,0,0,.24,0A.54.54,0,0,0,88,76Z"/><path class="cls-1" d="M90.56,72a1.36,1.36,0,0,1-.62.67,1.47,1.47,0,0,1-.84.15,2.83,2.83,0,0,1-1-.31,2.74,2.74,0,0,1-.92-.69,1.4,1.4,0,0,1-.36-.83,1.6,1.6,0,0,1,.17-.87,1.24,1.24,0,0,1,.23-.34.7.7,0,0,1,.19-.17.4.4,0,0,0,.11-.12.1.1,0,0,0,0-.13l-.09-.1.09-.19,1.3.65-.1.21a1.87,1.87,0,0,0-.91-.08.78.78,0,0,0-.53.42.72.72,0,0,0,.07.77,2.6,2.6,0,0,0,1,.72,3.36,3.36,0,0,0,.85.3,1,1,0,0,0,.6-.08,1,1,0,0,0,.39-.44,1,1,0,0,0,.12-.6,1.92,1.92,0,0,0-.19-.59l.21-.06a4.86,4.86,0,0,1,.31.53,1.43,1.43,0,0,1,.13.54,1.49,1.49,0,0,1-.17.64"/><path class="cls-1" d="M92.41,67.47l-1,2.61L91.17,70a1.28,1.28,0,0,0,.07-.26.27.27,0,0,0-.08-.19.87.87,0,0,0-.28-.15l-2.19-.85a1.68,1.68,0,0,0-.33-.09.21.21,0,0,0-.19.06.94.94,0,0,0-.14.27l-.25-.1,1-2.56,1,.36-.09.23a2.07,2.07,0,0,0-.43-.06.37.37,0,0,0-.27.11,1,1,0,0,0-.2.36l-.24.6,1.27.49L90,67.8a1.45,1.45,0,0,0,.1-.34.2.2,0,0,0-.08-.19,1.61,1.61,0,0,0-.3-.15l.08-.21,1.28.49-.09.21a1.49,1.49,0,0,0-.35-.1.22.22,0,0,0-.19.08,1.51,1.51,0,0,0-.15.33l-.16.4,1.37.53.21-.54a1.9,1.9,0,0,0,.11-.38.51.51,0,0,0,0-.28.71.71,0,0,0-.17-.24,2.79,2.79,0,0,0-.33-.25l.09-.22Z"/><path class="cls-1" d="M92.78,66.57l-.06.2-1.24-.32.07-.23a2.36,2.36,0,0,0,.61,0,.56.56,0,0,0,.33-.14.62.62,0,0,0,.17-.3.74.74,0,0,0,0-.29.44.44,0,0,0-.09-.27.53.53,0,0,0-.27-.17.8.8,0,0,0-.43,0,1,1,0,0,0-.34.18,2.67,2.67,0,0,0-.32.28l-.39.32a1.14,1.14,0,0,1-.45.19,1.29,1.29,0,0,1-.6,0,1.11,1.11,0,0,1-.49-.28.93.93,0,0,1-.21-.46,1.19,1.19,0,0,1,.06-.58.73.73,0,0,1,.12-.28.62.62,0,0,1,.12-.17.33.33,0,0,0,.07-.13.14.14,0,0,0,0-.09.19.19,0,0,0-.09-.09l.05-.17,1.2.32-.07.22a1.85,1.85,0,0,0-.8.06.55.55,0,0,0-.33.37.57.57,0,0,0,0,.41.42.42,0,0,0,.3.22.53.53,0,0,0,.37,0,1,1,0,0,0,.31-.2,4.11,4.11,0,0,0,.31-.29l.3-.26a1.2,1.2,0,0,1,.34-.21,1.08,1.08,0,0,1,.41-.1,1.46,1.46,0,0,1,.49.06,1.23,1.23,0,0,1,.55.32,1,1,0,0,1,.24.52,1.51,1.51,0,0,1,0,.66,1.3,1.3,0,0,1-.15.33.79.79,0,0,1-.14.16.26.26,0,0,0-.07.1.09.09,0,0,0,0,.1.18.18,0,0,0,.12.08"/><path class="cls-1" d="M11.77,36.45c0,.06-.06.07-.11,0L11,36.24a.08.08,0,0,1-.05-.11l.26-.66c0-.06.05-.07.11,0l.68.26a.08.08,0,0,1,0,.11Zm.39-1a.08.08,0,0,1-.11,0l-.69-.27a.08.08,0,0,1,0-.11l.26-.66a.08.08,0,0,1,.11,0l.68.27c.06,0,.07.05.05.11Zm1.14-.11L13,35.19a.07.07,0,0,1-.05-.11l.27-.73c0-.05.06-.07.11-.05l2.55,1a.54.54,0,0,0,.36,0,.43.43,0,0,0,.2-.26l.12-.3c.08-.21.25-.26.52-.16a.47.47,0,0,1,.28.2.36.36,0,0,1,0,.27l-.25.63a1.18,1.18,0,0,1-.37.55.73.73,0,0,1-.58.11,1.27,1.27,0,0,1,.06.48,1.87,1.87,0,0,1-.11.51,2.05,2.05,0,0,1-.31.54,1.44,1.44,0,0,1-.45.37,1.21,1.21,0,0,1-.58.14,1.8,1.8,0,0,1-.72-.14,2,2,0,0,1-.72-.42,1.42,1.42,0,0,1-.36-.54,1.47,1.47,0,0,1-.07-.59A2.69,2.69,0,0,1,13,36.1Zm2,1.62a.71.71,0,0,0,0-.64,1,1,0,0,0-.56-.43l-.67-.25-.27.7a.73.73,0,0,0,.52,1.06.72.72,0,0,0,.61,0,.78.78,0,0,0,.37-.45"/><path class="cls-1" d="M17.37,35.09c-.05.1-.1.16-.17.18a.7.7,0,0,1-.32-.08.74.74,0,0,1-.29-.2.27.27,0,0,1,0-.26l.43-.91a.28.28,0,0,1,.19-.19.43.43,0,0,1,.33.06.52.52,0,0,1,.28.22.36.36,0,0,1,0,.26Z"/><path class="cls-1" d="M18.22,32.41a.65.65,0,0,1,.13.48,1.7,1.7,0,0,1-.21.61l-.37.69a.39.39,0,0,1-.19.19.45.45,0,0,1-.32-.08c-.15-.08-.24-.15-.27-.23a.33.33,0,0,1,0-.27l.26-.49a.46.46,0,0,0,.07-.23.28.28,0,0,0-.07-.17l-.2-.16-.34-.18-1.55-.82s0,0,0-.07a.17.17,0,0,1,0-.1l.33-.63a.09.09,0,0,1,.12,0l1.81,1a.44.44,0,0,0,.43,0,.86.86,0,0,0,.36-.39l.07-.13a.32.32,0,0,1,.2-.18.47.47,0,0,1,.32.07.6.6,0,0,1,.26.23.33.33,0,0,1,0,.28,1.53,1.53,0,0,1-.34.46.67.67,0,0,1-.49.18m1.2,2.12a.07.07,0,0,1-.11,0l-.65-.35c-.05,0-.06-.06,0-.11l.33-.63s.06-.06.11,0l.65.34a.08.08,0,0,1,0,.11Zm.52-1a.09.09,0,0,1-.12,0l-.65-.35c-.05,0-.06-.06,0-.11l.33-.63a.08.08,0,0,1,.12,0l.64.34c.05,0,.07.06,0,.11Z"/><path class="cls-1" d="M16.72,29.84a2.37,2.37,0,0,1-.07-.8A1.82,1.82,0,0,1,17,28.2a2.24,2.24,0,0,1,.66-.7,1.6,1.6,0,0,1,.72-.25,1.73,1.73,0,0,1,.74.1,3.14,3.14,0,0,1,.73.37l.09.06.09.06a.44.44,0,0,0,.4,0,.81.81,0,0,0,.38-.34l.08-.12a.3.3,0,0,1,.22-.16.49.49,0,0,1,.31.1.51.51,0,0,1,.24.26.33.33,0,0,1-.06.26,1.78,1.78,0,0,1-.42.47.76.76,0,0,1-.57.12.86.86,0,0,1,.09.58,2.37,2.37,0,0,1-.29.64L19,31.84a.3.3,0,0,1-.22.16.47.47,0,0,1-.32-.11c-.14-.09-.22-.17-.24-.25a.37.37,0,0,1,.08-.26l1.23-1.87a1.7,1.7,0,0,0,.17-.32.41.41,0,0,0,0-.24.6.6,0,0,0-.13-.21l-.27-.21a3.19,3.19,0,0,0-.45-.23,1,1,0,0,0-.42-.07.77.77,0,0,0-.39.11,1,1,0,0,0-.34.34,1.19,1.19,0,0,0-.19.49,1.69,1.69,0,0,0,0,.5s0,.09-.05.1l-.63.12c-.06,0-.09,0-.1-.05"/><path class="cls-1" d="M20.19,24.56a5.6,5.6,0,0,1,.33-.88,3.62,3.62,0,0,1,.56-.84,2.66,2.66,0,0,1,.74-.61,1.54,1.54,0,0,1,.73-.22,1.81,1.81,0,0,1,.71.15,3,3,0,0,1,.7.47l.11.11.09.08a.47.47,0,0,0,.42.11.86.86,0,0,0,.44-.29l.09-.11a.33.33,0,0,1,.24-.12.51.51,0,0,1,.29.14.56.56,0,0,1,.2.29.3.3,0,0,1-.1.25,1.67,1.67,0,0,1-.5.41.71.71,0,0,1-.59,0,.84.84,0,0,1,0,.68,3.64,3.64,0,0,1-.52.74L23,26.18l-.19.21a1.8,1.8,0,0,1-.2.19l-.2.17a.7.7,0,0,1-.19.1.77.77,0,0,1-.11.3,2,2,0,0,1-.24.31l-.46.52a.39.39,0,0,1-.23.14.52.52,0,0,1-.3-.15c-.13-.12-.21-.22-.21-.3a.35.35,0,0,1,.1-.25l.26-.29a.35.35,0,0,0,.11-.23.29.29,0,0,0-.06-.21.9.9,0,0,0-.18-.23,2.61,2.61,0,0,0-.24-.22l-1.3-1.16a.07.07,0,0,1,0-.11l.52-.59a.08.08,0,0,1,.12,0Zm1.44-1.06a3.28,3.28,0,0,0-.52.79,5.86,5.86,0,0,0-.3.81l.85.76a1.85,1.85,0,0,1,.14.14l.12.13,1.22-1.37.38-.45a.8.8,0,0,0,.16-.32.4.4,0,0,0-.08-.29,2,2,0,0,0-.33-.35,2.26,2.26,0,0,0-.4-.28.7.7,0,0,0-.39-.09.94.94,0,0,0-.41.13,1.69,1.69,0,0,0-.44.39"/><path class="cls-1" d="M25.72,23.29a.42.42,0,0,1-.25.11c-.07,0-.17-.07-.28-.19a.58.58,0,0,1-.17-.3.33.33,0,0,1,.13-.25l.31-.28a.39.39,0,0,0,.16-.27.48.48,0,0,0-.16-.33l-2.92-3.24a.07.07,0,0,1,0-.12l.58-.52a.08.08,0,0,1,.12,0l3.07,3.42a1.22,1.22,0,0,1,.38.75,1,1,0,0,1-.39.69Z"/><path class="cls-1" d="M28.47,20.81a.08.08,0,0,1,0,.12l-.6.48c-.05,0-.08,0-.12,0l-3.5-4.33c0-.05,0-.09,0-.12l.61-.49s.08,0,.12,0Z"/><path class="cls-1" d="M32.67,18.1a2,2,0,0,1-.69.28,1.23,1.23,0,0,1-.66-.05.52.52,0,0,1-.06.23,1.21,1.21,0,0,0-.09.2.46.46,0,0,0,0,.21.56.56,0,0,0,.1.29l.73,1.2-.81.49-.82-1.35a1.2,1.2,0,0,1-.17-.42.82.82,0,0,1,0-.35,1.06,1.06,0,0,1,.1-.3c.05-.09.09-.17.13-.26a2.58,2.58,0,0,0,.08-.26.39.39,0,0,0-.05-.27l-.1-.14a1.4,1.4,0,0,0-.1-.16,2.6,2.6,0,0,1-.34-.82,1.45,1.45,0,0,1,0-.69,1.33,1.33,0,0,1,.3-.56,2.12,2.12,0,0,1,.54-.44,2.55,2.55,0,0,1,.64-.28,1.39,1.39,0,0,1,.64,0,1.45,1.45,0,0,1,.62.31,2.45,2.45,0,0,1,.56.68,2.16,2.16,0,0,1,.33.79,1.37,1.37,0,0,1,0,.67,1.46,1.46,0,0,1-.3.56,2.25,2.25,0,0,1-.55.45m-1.49-2.46a.73.73,0,0,0-.38.54,1.27,1.27,0,0,0,.23.75,1.3,1.3,0,0,0,.57.56.88.88,0,0,0,1-.63,1.25,1.25,0,0,0-.23-.76c-.36-.58-.76-.73-1.21-.46"/><path class="cls-1" d="M36.1,18.11a.08.08,0,0,1-.11-.05l-.28-.61a.07.07,0,0,1,0-.11l.9-.41a1.31,1.31,0,0,0,.29-.17.54.54,0,0,0,.16-.22.69.69,0,0,0,0-.3,1.42,1.42,0,0,0-.14-.41l-.77.35a2.5,2.5,0,0,1-.68.21,1.21,1.21,0,0,1-.6-.06,1.27,1.27,0,0,1-.51-.35,2.49,2.49,0,0,1-.44-.69,2.4,2.4,0,0,1-.23-.87,1.59,1.59,0,0,1,.1-.7,1.47,1.47,0,0,1,.36-.53,2,2,0,0,1,.56-.37,2.22,2.22,0,0,1,.67-.2,1.46,1.46,0,0,1,.63.07,1.43,1.43,0,0,1,.56.38,2.43,2.43,0,0,1,.48.73l.39.87.53-.24a.33.33,0,0,1,.27,0c.08,0,.14.12.21.25a.63.63,0,0,1,.07.36.4.4,0,0,1-.2.18l-.53.24.07.17A1.46,1.46,0,0,1,38,16.83a1.65,1.65,0,0,1-.9.81Zm-1-4.52a.72.72,0,0,0-.43.5,1.27,1.27,0,0,0,.12.79c.15.32.31.51.5.57a.88.88,0,0,0,.64-.08l.69-.31-.4-.87a1.15,1.15,0,0,0-.48-.61.66.66,0,0,0-.64,0"/><path class="cls-1" d="M38.39,14.36a.43.43,0,0,0,.26-.2.51.51,0,0,0,0-.36L37.19,9.68c0-.06,0-.09.06-.11L38,9.31a.08.08,0,0,1,.11.06l1.4,4.05a.44.44,0,0,0,.31.3.83.83,0,0,0,.53,0l.13,0a.32.32,0,0,1,.27,0,.45.45,0,0,1,.19.27.56.56,0,0,1,0,.35.31.31,0,0,1-.21.17,1.84,1.84,0,0,1-.57.11.64.64,0,0,1-.48-.2.68.68,0,0,1-.21.43,1.72,1.72,0,0,1-.53.29l-.67.23a.36.36,0,0,1-.27,0,.57.57,0,0,1-.2-.31.5.5,0,0,1,0-.33.4.4,0,0,1,.22-.17Z"/><path class="cls-1" d="M42,10.31a2.26,2.26,0,0,1,1.47,0,1.15,1.15,0,0,1,.66.82,1.3,1.3,0,0,1,0,.48,1.64,1.64,0,0,1-.1.45,2.14,2.14,0,0,1-.2.4,3,3,0,0,1-.24.32l.15,0,.17,0,1-.25a.31.31,0,0,1,.28,0,.68.68,0,0,1,.15.32.5.5,0,0,1,0,.33.34.34,0,0,1-.22.14L44,13.6a4.1,4.1,0,0,1-.57.08,1.52,1.52,0,0,1-.56-.08,1.61,1.61,0,0,1-.52.34,3.14,3.14,0,0,1-.53.19l-1.18.29a.29.29,0,0,1-.26,0,.43.43,0,0,1-.16-.28.83.83,0,0,1,0-.34c0-.08.1-.14.24-.17l1-.24.29-.08.37-.16a2.37,2.37,0,0,0-.29-.42,1.74,1.74,0,0,0-.34-.28,1.82,1.82,0,0,0-.36-.2c-.13-.05-.25-.11-.38-.15s-.12-.06-.13-.1a1.17,1.17,0,0,1-.05-.11l-.12-.52c0-.06,0-.14.11-.23a1.43,1.43,0,0,1,.36-.3,4.65,4.65,0,0,1,.55-.28,3.55,3.55,0,0,1,.65-.22m.73,2.44a1.43,1.43,0,0,0,.22-.26,1.92,1.92,0,0,0,.18-.31,1.26,1.26,0,0,0,.1-.33,1,1,0,0,0,0-.34.47.47,0,0,0-.35-.4,1.21,1.21,0,0,0-.65,0,2.27,2.27,0,0,0-.56.2,1.37,1.37,0,0,0-.3.2,2.19,2.19,0,0,1,.79.46,2.47,2.47,0,0,1,.59.76"/><path class="cls-1" d="M45.36,12.47a.38.38,0,0,0,.29-.14A.48.48,0,0,0,45.7,12l-.64-4.32c0-.05,0-.08.07-.09l.77-.11c.05,0,.08,0,.09.07l.63,4.24a.48.48,0,0,0,.24.36.83.83,0,0,0,.53.05l.14,0a.39.39,0,0,1,.27.06.53.53,0,0,1,.13.3.6.6,0,0,1,0,.35.35.35,0,0,1-.24.13,1.87,1.87,0,0,1-.58,0,.67.67,0,0,1-.44-.29.63.63,0,0,1-.29.38,1.4,1.4,0,0,1-.57.19l-.71.1a.36.36,0,0,1-.26,0,.52.52,0,0,1-.13-.34.48.48,0,0,1,0-.33.28.28,0,0,1,.24-.12Z"/><path class="cls-1" d="M47.57,13a.35.35,0,0,1-.26-.06.44.44,0,0,1-.11-.32.54.54,0,0,1,0-.34.32.32,0,0,1,.25-.12l.41,0a.47.47,0,0,0,.3-.13.48.48,0,0,0,.07-.35L47.91,7.3c0-.06,0-.09.08-.09l.77-.07c.06,0,.09,0,.09.08l.39,4.57a1.2,1.2,0,0,1-.16.83,1,1,0,0,1-.73.32Z"/><path class="cls-1" d="M54.35,9.18l0-.36c0-.06,0-.09.08-.09l.78,0c.06,0,.08,0,.08.09l-.12,2.72a.51.51,0,0,0,.08.36.49.49,0,0,0,.31.11h.32c.22,0,.33.16.31.44a.43.43,0,0,1-.09.33.3.3,0,0,1-.26.07l-.68,0a1.22,1.22,0,0,1-.64-.17.75.75,0,0,1-.29-.52,1.15,1.15,0,0,1-.43.21,1.8,1.8,0,0,1-.52,0,1.54,1.54,0,0,1-.61-.12,1.39,1.39,0,0,1-.5-.3,1.48,1.48,0,0,1-.32-.51,2.06,2.06,0,0,1-.09-.73A2,2,0,0,1,52,10a1.4,1.4,0,0,1,.4-.51,1.36,1.36,0,0,1,.54-.26,2.11,2.11,0,0,1,.62-.06Zm-1.57-1.1c-.05,0-.08,0-.08-.09l0-.73c0-.06,0-.09.08-.08l.71,0c.06,0,.09,0,.08.09l0,.73c0,.05,0,.08-.09.08Zm.67,3.53a.75.75,0,0,0,.61-.21,1,1,0,0,0,.22-.67l0-.71-.75,0a.86.86,0,0,0-.59.16.87.87,0,0,0-.25.67.75.75,0,0,0,.18.58.79.79,0,0,0,.55.21m.43-3.48A.08.08,0,0,1,53.8,8l0-.73a.08.08,0,0,1,.09-.09l.71,0a.07.07,0,0,1,.08.08l0,.74c0,.05,0,.08-.09.08Z"/><path class="cls-1" d="M55.85,13a.25.25,0,0,1-.22-.11.5.5,0,0,1,0-.32.68.68,0,0,1,.1-.34.25.25,0,0,1,.24-.07l1,.12a.31.31,0,0,1,.24.12.72.72,0,0,1-.07.67.42.42,0,0,1-.27.05Z"/><path class="cls-1" d="M58.66,12.91a.62.62,0,0,1-.41.28,1.78,1.78,0,0,1-.65,0l-.77-.13a.31.31,0,0,1-.24-.12.52.52,0,0,1,0-.33.5.5,0,0,1,.14-.32.29.29,0,0,1,.27-.06l.54.09a.46.46,0,0,0,.24,0,.31.31,0,0,0,.14-.12,1,1,0,0,0,.08-.24c0-.1.05-.23.07-.38l.29-1.73a0,0,0,0,1,.05-.05h.1l.71.12c.06,0,.08,0,.07.1l-.33,2a.45.45,0,0,0,.12.42.82.82,0,0,0,.48.21l.14,0a.3.3,0,0,1,.24.13.48.48,0,0,1,0,.33.57.57,0,0,1-.13.32.34.34,0,0,1-.27.05,2.05,2.05,0,0,1-.56-.17.67.67,0,0,1-.32-.42M57,14.73a.08.08,0,0,1-.07-.1l.12-.72c0-.06,0-.08.1-.07l.7.11a.08.08,0,0,1,.07.1l-.12.72c0,.06,0,.08-.1.08Zm1.09.18c-.06,0-.08,0-.07-.1l.12-.72c0-.06,0-.08.09-.07l.7.11c.06,0,.08,0,.07.1l-.12.72c0,.06,0,.08-.09.07Z"/><path class="cls-1" d="M59.46,13.49a.38.38,0,0,1-.23-.11.28.28,0,0,1,0-.26.86.86,0,0,1,.16-.35.27.27,0,0,1,.29-.1l.4.09a.41.41,0,0,0,.32,0,.51.51,0,0,0,.18-.32L61,10.35a.08.08,0,0,1,.1-.07l.76.18a.08.08,0,0,1,.06.1l-.53,2.29a1.26,1.26,0,0,1-.4.74,1,1,0,0,1-.8.08Zm.36,1.73a.07.07,0,0,1-.06-.1l.16-.71a.08.08,0,0,1,.1-.07l.79.19c.06,0,.08,0,.07.1l-.17.71a.08.08,0,0,1-.1.07Z"/><path class="cls-1" d="M63.49,11a.07.07,0,0,1,.1-.06l.75.22a.08.08,0,0,1,0,.11l-.59,2a.46.46,0,0,0,.07.43,1,1,0,0,0,.45.28l.14,0a.32.32,0,0,1,.22.16.48.48,0,0,1,0,.33.49.49,0,0,1-.17.3.35.35,0,0,1-.27,0,1.81,1.81,0,0,1-.46-.2.66.66,0,0,1-.27-.32l-.05.16a4,4,0,0,1-.3.74,1.6,1.6,0,0,1-.4.48,1.06,1.06,0,0,1-.54.19,1.89,1.89,0,0,1-.71-.09l-.3-.09a.08.08,0,0,1,0-.11l.19-.64c0-.06.05-.08.11-.06l.18.05a.65.65,0,0,0,.38,0,.54.54,0,0,0,.27-.18,1.21,1.21,0,0,0,.18-.36,5,5,0,0,0,.17-.51Z"/><path class="cls-1" d="M67.68,12.18a2.22,2.22,0,0,1,1.17.88,1.14,1.14,0,0,1,.06,1,1.59,1.59,0,0,1-.26.41,2.43,2.43,0,0,1-.34.3,3,3,0,0,1-.4.21,2.24,2.24,0,0,1-.38.11.4.4,0,0,0,.13.07l.16.07,1,.4c.13.05.19.11.21.19a.7.7,0,0,1-.07.34c-.06.15-.12.24-.19.27a.35.35,0,0,1-.26,0L67.31,16a2.06,2.06,0,0,1-.51-.27,1.64,1.64,0,0,1-.41-.38,2.15,2.15,0,0,1-.62,0,4,4,0,0,1-.54-.16l-1.12-.46a.33.33,0,0,1-.2-.18.49.49,0,0,1,0-.32.91.91,0,0,1,.18-.29q.09-.08.3,0l.91.38.29.1a1.61,1.61,0,0,0,.39.09A1.77,1.77,0,0,0,66,14a1.93,1.93,0,0,0-.1-.43,2.12,2.12,0,0,0-.18-.37l-.22-.35c0-.07-.06-.12,0-.15a.53.53,0,0,1,0-.12l.2-.49c0-.06.1-.1.23-.13a1.65,1.65,0,0,1,.46,0A3.6,3.6,0,0,1,67,12a5.16,5.16,0,0,1,.67.2m-.85,2.41a1.44,1.44,0,0,0,.33-.08,1.57,1.57,0,0,0,.32-.15,1.21,1.21,0,0,0,.28-.21.92.92,0,0,0,.19-.28.52.52,0,0,0,0-.54,1.31,1.31,0,0,0-.54-.36,2.06,2.06,0,0,0-.57-.16,1.7,1.7,0,0,0-.36,0,2.27,2.27,0,0,1,.37.84,2.57,2.57,0,0,1,0,1"/><path class="cls-1" d="M68.35,16.46a.35.35,0,0,1-.19-.19c0-.07,0-.18.07-.33a.55.55,0,0,1,.23-.26.33.33,0,0,1,.27,0l.37.19a.5.5,0,0,0,.32.06.51.51,0,0,0,.25-.27l2-3.88a.08.08,0,0,1,.12,0l.69.35a.08.08,0,0,1,0,.12L70.4,16.33a1.26,1.26,0,0,1-.57.61,1,1,0,0,1-.79-.12Z"/><path class="cls-1" d="M71.63,18.16a.09.09,0,0,1-.12,0l-.67-.4a.08.08,0,0,1,0-.11l2.83-4.81a.09.09,0,0,1,.12,0l.67.4a.08.08,0,0,1,0,.11Z"/><path class="cls-1" d="M77.8,18.11l.23-.29a.07.07,0,0,1,.11,0l.62.48a.07.07,0,0,1,0,.12L77.1,20.56a.48.48,0,0,0-.13.33.43.43,0,0,0,.18.27l.26.19c.17.14.18.32,0,.55a.47.47,0,0,1-.27.21.35.35,0,0,1-.25-.09l-.54-.42a1.19,1.19,0,0,1-.42-.51A.74.74,0,0,1,76,20.5a1.31,1.31,0,0,1-.47-.07,1.93,1.93,0,0,1-.46-.26,2,2,0,0,1-.43-.45,1.42,1.42,0,0,1-.23-.54,1.38,1.38,0,0,1,0-.6,1.7,1.7,0,0,1,.34-.65,2.24,2.24,0,0,1,.61-.56,1.35,1.35,0,0,1,.61-.19,1.38,1.38,0,0,1,.6.1,2.17,2.17,0,0,1,.53.31Zm-2.13,1.46a.73.73,0,0,0,.61.19,1.09,1.09,0,0,0,.57-.42l.44-.57-.6-.46a1,1,0,0,0-.57-.21.88.88,0,0,0-.59.41.72.72,0,0,0-.19.57.78.78,0,0,0,.33.49m1.49-3.26a.08.08,0,0,1,0-.12l.45-.58a.08.08,0,0,1,.12,0l.56.43s0,.08,0,.12l-.44.58a.08.08,0,0,1-.12,0ZM78,17a.08.08,0,0,1,0-.12l.45-.58c0-.05.07-.05.12,0l.56.44a.07.07,0,0,1,0,.11l-.45.58a.07.07,0,0,1-.11,0Z"/><path class="cls-1" d="M76.85,22.07a.27.27,0,0,1-.11-.22.55.55,0,0,1,.16-.28.76.76,0,0,1,.28-.22.26.26,0,0,1,.24.09l.75.68a.29.29,0,0,1,.13.23.45.45,0,0,1-.16.3.53.53,0,0,1-.29.21.39.39,0,0,1-.24-.12Z"/><path class="cls-1" d="M81.85,21.78a2.28,2.28,0,0,1,.73,1.27,1.15,1.15,0,0,1-.38,1,1.25,1.25,0,0,1-.39.27,1.5,1.5,0,0,1-.44.14,1.71,1.71,0,0,1-.45,0,2.46,2.46,0,0,1-.4,0l.09.11.12.13.74.76a.28.28,0,0,1,.11.25.72.72,0,0,1-.2.29c-.12.11-.21.17-.29.17a.42.42,0,0,1-.23-.13l-.87-.9a4.88,4.88,0,0,1-.37-.45,1.58,1.58,0,0,1-.21-.52,2,2,0,0,1-.56-.28,4.25,4.25,0,0,1-.42-.36l-.85-.88a.3.3,0,0,1-.11-.23.43.43,0,0,1,.17-.28.6.6,0,0,1,.28-.19q.1,0,.27.12l.68.71.22.2a3.27,3.27,0,0,0,.32.25,1.64,1.64,0,0,0,.22-.47,1.71,1.71,0,0,0,.08-.43,3,3,0,0,0,0-.42l-.06-.4a.25.25,0,0,1,0-.16.39.39,0,0,1,.08-.1l.38-.37s.13-.05.26,0a1.65,1.65,0,0,1,.43.16,5.55,5.55,0,0,1,.53.33,4.5,4.5,0,0,1,.52.46m-1.74,1.86a1.61,1.61,0,0,0,.33.06,2.16,2.16,0,0,0,.36,0,1.78,1.78,0,0,0,.33-.09.79.79,0,0,0,.29-.18.51.51,0,0,0,.17-.51,1.3,1.3,0,0,0-.35-.55,2.11,2.11,0,0,0-.45-.38,1.53,1.53,0,0,0-.33-.16,2.19,2.19,0,0,1,0,.92,2.53,2.53,0,0,1-.36.89"/><path class="cls-1" d="M82.27,28a2.2,2.2,0,0,1-.36-.67,1.22,1.22,0,0,1,0-.68.8.8,0,0,1-.31,0,1.15,1.15,0,0,1-.25-.12.87.87,0,0,1-.21-.17l-.17-.19-.17-.23a.31.31,0,0,1-.08-.26.71.71,0,0,1,.52-.41.34.34,0,0,1,.23.16l.2.26a.33.33,0,0,0,.14.12.34.34,0,0,0,.2.06.68.68,0,0,0,.27,0,1.06,1.06,0,0,0,.32-.18l.09-.08.1-.08a2.71,2.71,0,0,1,.75-.39,1.5,1.5,0,0,1,.66-.05,1.42,1.42,0,0,1,.58.25,2.27,2.27,0,0,1,.49.49,2.06,2.06,0,0,1,.34.61,1.4,1.4,0,0,1,.08.64,1.45,1.45,0,0,1-.24.64,2.62,2.62,0,0,1-.62.63,2.57,2.57,0,0,1-.75.41,1.57,1.57,0,0,1-.67.06,1.28,1.28,0,0,1-.58-.24,2.28,2.28,0,0,1-.52-.51m2.29-1.73a.68.68,0,0,0-.57-.32,1.24,1.24,0,0,0-.72.3,1.32,1.32,0,0,0-.5.62.9.9,0,0,0,.73,1,1.27,1.27,0,0,0,.73-.31c.54-.41.65-.83.33-1.25"/><path class="cls-1" d="M88.58,27a.08.08,0,0,1,.12,0l.41.66s0,.08,0,.11l-3.69,2.33a.49.49,0,0,0-.24.27.39.39,0,0,0,.08.31l.16.25a.33.33,0,0,1,0,.27.61.61,0,0,1-.24.25c-.15.09-.26.13-.33.11a.37.37,0,0,1-.2-.18l-.35-.56a1,1,0,0,1-.19-.78,1.19,1.19,0,0,1,.56-.62Z"/><path class="cls-1" d="M84,33.52c0-.05,0-.09,0-.11l.65-.34c.06,0,.09,0,.12,0l.37.72a.09.09,0,0,1,0,.12l-.65.33s-.09,0-.12,0Zm3.51-3.17a2.12,2.12,0,0,1,.72.33,1.88,1.88,0,0,1,.58.7,2.21,2.21,0,0,1,.27.92,1.53,1.53,0,0,1-.13.75,1.82,1.82,0,0,1-.45.6,3.65,3.65,0,0,1-.68.45l-.1,0-.09,0a.48.48,0,0,0-.22.35.86.86,0,0,0,.11.49l.07.13a.33.33,0,0,1,0,.27.47.47,0,0,1-.24.22.5.5,0,0,1-.34.08.32.32,0,0,1-.2-.18,1.7,1.7,0,0,1-.2-.6.71.71,0,0,1,.17-.55.87.87,0,0,1-.55-.21,1.86,1.86,0,0,1-.41-.57L84.66,31.3a.33.33,0,0,1,0-.27.49.49,0,0,1,.26-.22.46.46,0,0,1,.33-.08.32.32,0,0,1,.19.19l1,2a1.3,1.3,0,0,0,.19.3.41.41,0,0,0,.2.13.4.4,0,0,0,.24,0,2.4,2.4,0,0,0,.32-.13,3.84,3.84,0,0,0,.42-.27,1.1,1.1,0,0,0,.27-.34.87.87,0,0,0,.1-.39,1.18,1.18,0,0,0-.14-.47,1.08,1.08,0,0,0-.33-.4,1.42,1.42,0,0,0-.44-.23.07.07,0,0,1-.06-.1l.2-.6c0-.06,0-.08.1-.06"/><path class="cls-1" d="M86.73,35.46a.34.34,0,0,1,0-.26c0-.08.12-.14.27-.21a.57.57,0,0,1,.34-.05.36.36,0,0,1,.19.21l.15.38a.41.41,0,0,0,.21.25.54.54,0,0,0,.36,0l4.05-1.63a.07.07,0,0,1,.11,0l.29.72a.08.08,0,0,1,0,.11L88.38,36.7a1.15,1.15,0,0,1-.83.09.91.91,0,0,1-.52-.6Z"/><path class="cls-1" d="M88.12,38.89a.08.08,0,0,1-.11,0l-.25-.74a.08.08,0,0,1,0-.11l5.28-1.79a.07.07,0,0,1,.1,0l.26.74s0,.09-.06.1Z"/><path class="cls-2" d="M82.08,52A30.12,30.12,0,1,1,52,21.84,30.11,30.11,0,0,1,82.08,52"/><path class="cls-1" d="M52,30l12.4,5.48-1.79.79v-.79H61.9v5.1H62a.47.47,0,0,1-.12.93h0v1.12l.81,2.13H60.34l.82-2.13V41.46h0A.46.46,0,0,1,60.7,41a.47.47,0,0,1,.46-.48h0V36.87L58.62,38A13.68,13.68,0,0,0,52,36.37v.76a12.94,12.94,0,0,1,6.45,1.65V43.4c-3.38-2.19-9.51-2.19-12.89,0V38.05l-6-2.62Z"/><path class="cls-1" d="M52,21.84A30.12,30.12,0,1,1,21.84,52,30.16,30.16,0,0,1,52,21.84m0-2.13A32.26,32.26,0,1,0,84.22,52,32.29,32.29,0,0,0,52,19.71"/><path class="cls-1" d="M29.63,57.4l-1.06,1.82H24.75l7.4-12.38H35.9l7.41,12.38H39.39L38.33,57.4ZM37,55.11l-3-5-3,5Z"/><path class="cls-1" d="M59.09,46.84V55.1A4,4,0,0,1,57.84,58a4.51,4.51,0,0,1-3.34,1.24H48.69A4.61,4.61,0,0,1,45.34,58,4,4,0,0,1,44.1,55.1V46.84h3.4V54.6a1.67,1.67,0,0,0,.58,1.32,2.2,2.2,0,0,0,1.48.51h4.08a2.13,2.13,0,0,0,1.48-.51,1.64,1.64,0,0,0,.58-1.32V46.84Z"/><polygon class="cls-1" points="77.66 46.84 77.66 59.22 74.29 59.22 74.29 54.23 65.21 54.23 65.21 59.22 61.84 59.22 61.84 46.84 65.21 46.84 65.21 51.47 74.29 51.47 74.29 46.84 77.66 46.84"/><polygon class="cls-1" points="9.6 60.35 6.85 53.24 1.1 53.24 1.1 51.46 8.07 51.46 9.52 55.2 12.99 45.28 15.51 51.46 21.15 51.46 21.15 53.24 14.31 53.24 13.12 50.31 9.6 60.35"/><polygon class="cls-1" points="91.39 60.35 88.64 53.24 82.89 53.24 82.89 51.46 89.86 51.46 91.31 55.2 94.78 45.28 97.3 51.46 102.94 51.46 102.94 53.24 96.1 53.24 94.91 50.31 91.39 60.35"/></g></g></svg>