<svg xmlns="http://www.w3.org/2000/svg" viewBox="0 0 168.2 168.2"><defs><style>.cls-1{fill:#29235C;}</style></defs><g id="Layer_2" data-name="Layer 2"><g id="Layer_1-2" data-name="Layer 1"><path class="cls-1" d="M84.1,3.46A80.64,80.64,0,1,1,3.46,84.1,80.64,80.64,0,0,1,84.1,3.46M84.1,0A84.1,84.1,0,0,0,24.63,143.57,84.1,84.1,0,0,0,143.57,24.63,83.59,83.59,0,0,0,84.1,0"/><path class="cls-1" d="M17.73,106.24l-.54-1.72.39-.13a.61.61,0,0,0,.17.3.72.72,0,0,0,.34.15,4.51,4.51,0,0,0,.61,0L24,105l.25.8L20,108.94a2.55,2.55,0,0,0-.55.53.52.52,0,0,0-.08.49l-.4.12-.75-2.42.39-.12a1.67,1.67,0,0,0,.08.2.37.37,0,0,0,.13.15.28.28,0,0,0,.22,0,1,1,0,0,0,.29-.14l.36-.22.6-.42.22-.13,2.17-1.46v0l-2.64,0H18.57a1.16,1.16,0,0,0-.28,0c-.14,0-.22.11-.24.2a1.12,1.12,0,0,0,.07.42Zm2.44,1.05-.61-2h.52L20.6,107Z"/><path class="cls-1" d="M20.36,113.54l-1.06-2.48.38-.16a1.27,1.27,0,0,0,.23.4.35.35,0,0,0,.32.1,2.16,2.16,0,0,0,.56-.17l3.51-1.51a1.34,1.34,0,0,0,.39-.22.35.35,0,0,0,.13-.28,1.25,1.25,0,0,0-.12-.46l.38-.17,1,2.37a3.47,3.47,0,0,1,.27,1,1.56,1.56,0,0,1-.16.89,1.49,1.49,0,0,1-.77.65,1.91,1.91,0,0,1-.85.17,1.29,1.29,0,0,1-.65-.22,2.42,2.42,0,0,1-.5-.46l0,0a1.54,1.54,0,0,1-.18.37c-.09.14-.24.35-.43.61s-.46.61-.79,1.07a1,1,0,0,0-.23.5,1.23,1.23,0,0,0,.11.46l-.38.16-.71-1.65.7-.78.45-.51.32-.38.31-.37a.52.52,0,0,0,.17-.3.65.65,0,0,0-.06-.31l-.07-.15-1.36.58a2.75,2.75,0,0,0-.51.28.36.36,0,0,0-.14.3,1.71,1.71,0,0,0,.15.49Zm2.67-2,.11.28a2.06,2.06,0,0,0,.4.55.87.87,0,0,0,.55.21,2,2,0,0,0,.79-.19,1.44,1.44,0,0,0,.71-.57.9.9,0,0,0,0-.86,1.47,1.47,0,0,0-.1-.22,1.28,1.28,0,0,0-.11-.2Z"/><path class="cls-1" d="M22.64,118.32l-.87-1.57.36-.2a.56.56,0,0,0,.23.25.59.59,0,0,0,.35.08,3.49,3.49,0,0,0,.62-.08l5.19-.92.41.73-3.56,3.92a2.58,2.58,0,0,0-.44.62.58.58,0,0,0,0,.5l-.36.2-1.23-2.22.36-.2.12.18a.4.4,0,0,0,.16.12.27.27,0,0,0,.22,0,1.82,1.82,0,0,0,.25-.19l.31-.3.5-.53.19-.18,1.83-1.86,0,0-2.59.48-.25.07-.85.16-.28.07a1.28,1.28,0,0,0-.26.1c-.13.08-.2.16-.2.25a1.36,1.36,0,0,0,.15.4Zm2.6.54-1-1.78.5-.12.85,1.54Z"/><path class="cls-1" d="M26.71,125l-1.58-2.31.34-.23a1.24,1.24,0,0,0,.32.35.33.33,0,0,0,.32,0,2.71,2.71,0,0,0,.49-.28l3.1-2.12a2.53,2.53,0,0,0,.42-.35.39.39,0,0,0,.07-.31,2,2,0,0,0-.23-.41l.35-.24,1.49,2.18a2.93,2.93,0,0,1,.5,1,1.15,1.15,0,0,1-.07.77,1.56,1.56,0,0,1-.52.57,1.38,1.38,0,0,1-1,.29,2,2,0,0,1-.88-.41l-.05,0a2.59,2.59,0,0,1,.2.67,1.31,1.31,0,0,1-.12.72,1.63,1.63,0,0,1-.64.69,1.5,1.5,0,0,1-1.33.29,2.24,2.24,0,0,1-1.19-1m.14-.64a2.17,2.17,0,0,0,.29.36.64.64,0,0,0,.32.2.74.74,0,0,0,.44,0,2.29,2.29,0,0,0,.6-.31,1.8,1.8,0,0,0,.62-.62.78.78,0,0,0,.08-.55,1.6,1.6,0,0,0-.23-.5l-.26-.37L26.63,124c0,.07.07.13.1.19l.12.19M30.93,121l-1.8,1.24.22.32c.22.32.43.49.65.5a1.43,1.43,0,0,0,.84-.32,1.39,1.39,0,0,0,.56-.64,1,1,0,0,0-.23-.81l-.1-.14a1.79,1.79,0,0,0-.14-.15"/><path class="cls-1" d="M31.54,131.33a2.35,2.35,0,0,1-.74-1.71,2.75,2.75,0,0,1,1.07-1.68l2-1.77a2.7,2.7,0,0,0,.35-.38.43.43,0,0,0,.05-.33,1.4,1.4,0,0,0-.26-.4l.3-.28,1.77,2-.31.27a1.18,1.18,0,0,0-.37-.31.41.41,0,0,0-.34,0,2.26,2.26,0,0,0-.45.33l-1.83,1.63a4,4,0,0,0-.7.77,1.11,1.11,0,0,0-.19.72,1.65,1.65,0,0,0,1.4,1.29,2.15,2.15,0,0,0,1.27-.67l1.63-1.44a4.67,4.67,0,0,0,.55-.55.5.5,0,0,0,.13-.39.94.94,0,0,0-.25-.43l.31-.27,1.36,1.53-.31.28a.92.92,0,0,0-.4-.31.44.44,0,0,0-.4.08,4.4,4.4,0,0,0-.6.46L35,131.2a3.27,3.27,0,0,1-1.83,1,2,2,0,0,1-1.61-.82"/><path class="cls-1" d="M35.76,135.49l-1.47-1.34.28-.3a.53.53,0,0,0,.53.13,1.76,1.76,0,0,0,.61-.35,7.43,7.43,0,0,0,.65-.62l2.24-2.45.38.35-2.71,3a3.14,3.14,0,0,0-.44.57.43.43,0,0,0-.07.38.94.94,0,0,0,.27.37Zm2.35,2.25-.67-.61,1.11-5.68-.21-.19.14-.51a1.46,1.46,0,0,0,.05-.42.51.51,0,0,0-.08-.28.87.87,0,0,0-.18-.22l.27-.31,1.4,1.29-1,5.19,0,0,1.93-2.11a4,4,0,0,0,.41-.5.75.75,0,0,0,.16-.45.79.79,0,0,0-.29-.47l.28-.3,1.47,1.35-.28.3a.59.59,0,0,0-.89,0,4,4,0,0,0-.47.46Z"/><path class="cls-1" d="M41.43,140.3l-2.06-1.62.26-.32a1.18,1.18,0,0,0,.43.25.34.34,0,0,0,.33-.1,4.14,4.14,0,0,0,.41-.45L43,135.3a2.62,2.62,0,0,0,.33-.5.37.37,0,0,0,0-.35.91.91,0,0,0-.33-.38l.26-.32,2.08,1.63-.26.33a1,1,0,0,0-.45-.25.43.43,0,0,0-.34.13,2.63,2.63,0,0,0-.39.44l-2.18,2.75a4.32,4.32,0,0,0-.35.51.35.35,0,0,0,0,.33,1.13,1.13,0,0,0,.33.36Z"/><path class="cls-1" d="M44.53,142.56l-.52-.35L45.3,137c.05-.21.08-.39.1-.53a.69.69,0,0,0,0-.36.65.65,0,0,0-.27-.28l.23-.34,2.19,1.48-.23.34-.24-.13a.34.34,0,0,0-.22,0,.35.35,0,0,0-.2.17,1.33,1.33,0,0,0-.22.48l-.63,2.51-.27.94,0,0,.78-.63L48.47,139l.12-.1a.93.93,0,0,0,.16-.18.29.29,0,0,0,0-.29,1,1,0,0,0-.27-.27l.23-.34,1.48,1-.23.34a1,1,0,0,0-.27-.12.51.51,0,0,0-.29,0,2,2,0,0,0-.43.24l-.7.49Z"/><path class="cls-1" d="M51.23,146.53l-3.94-2.21.2-.37a1.28,1.28,0,0,0,.4.17.36.36,0,0,0,.31-.08,1.32,1.32,0,0,0,.32-.42l1.86-3.31a2.6,2.6,0,0,0,.22-.49.38.38,0,0,0-.05-.32,1.55,1.55,0,0,0-.39-.3l.2-.36L54.24,141l-.81,1.53-.35-.19a2.58,2.58,0,0,0,.19-.67.6.6,0,0,0-.1-.46,1.64,1.64,0,0,0-.53-.41l-.91-.51-1.08,1.91.61.35a2.4,2.4,0,0,0,.53.24.31.31,0,0,0,.31-.08,1.77,1.77,0,0,0,.31-.45l.33.18-1.08,1.93-.33-.18a3.65,3.65,0,0,0,.25-.54.31.31,0,0,0-.09-.32A2.37,2.37,0,0,0,51,143l-.61-.35-1.17,2.08.82.45a2.87,2.87,0,0,0,.58.27.78.78,0,0,0,.45,0,1,1,0,0,0,.42-.22,4.83,4.83,0,0,0,.49-.46l.33.18Z"/><path class="cls-1" d="M54.78,148.22l-2.45-1.11.17-.38a1.54,1.54,0,0,0,.44.14.36.36,0,0,0,.3-.14,1.86,1.86,0,0,0,.29-.51l1.58-3.48a1.41,1.41,0,0,0,.14-.43.41.41,0,0,0-.09-.3,1.55,1.55,0,0,0-.41-.25l.17-.38,2.35,1.07a3.79,3.79,0,0,1,.87.55,1.55,1.55,0,0,1,.48.77,1.47,1.47,0,0,1-.13,1,1.77,1.77,0,0,1-.51.7,1.27,1.27,0,0,1-.63.27,2.5,2.5,0,0,1-.67,0l0,0a1.37,1.37,0,0,1,.12.4l.09.74c0,.32.07.76.13,1.32a1,1,0,0,0,.18.52,1.08,1.08,0,0,0,.39.27l-.17.37-1.64-.74c0-.42,0-.77,0-1s0-.5,0-.69,0-.34,0-.49,0-.31,0-.49a.54.54,0,0,0-.07-.33.6.6,0,0,0-.26-.18l-.15-.07-.61,1.35a1.91,1.91,0,0,0-.18.55.32.32,0,0,0,.1.31,1.54,1.54,0,0,0,.43.26Zm.63-3.28.27.14a1.93,1.93,0,0,0,.67.13.84.84,0,0,0,.54-.21,2,2,0,0,0,.46-.68,1.5,1.5,0,0,0,.14-.9.92.92,0,0,0-.59-.62l-.22-.1a1.11,1.11,0,0,0-.22-.07Z"/><path class="cls-1" d="M58.34,149.86l-.32-.12.64-2,.37.13a4.56,4.56,0,0,0-.06,1,1,1,0,0,0,.2.56,1.23,1.23,0,0,0,.46.3,1.61,1.61,0,0,0,.48.08.74.74,0,0,0,.74-.55,1.21,1.21,0,0,0,.07-.69,1.6,1.6,0,0,0-.25-.57c-.12-.17-.26-.35-.41-.53a7.63,7.63,0,0,1-.49-.67,1.72,1.72,0,0,1-.26-.75,1.9,1.9,0,0,1,.15-.95,1.67,1.67,0,0,1,.5-.77,1.31,1.31,0,0,1,.75-.29,2,2,0,0,1,.94.15,1.57,1.57,0,0,1,.45.22l.26.21a.5.5,0,0,0,.19.13.24.24,0,0,0,.15,0c.05,0,.1-.06.15-.14l.28.1-.64,1.91-.35-.13a2.84,2.84,0,0,0,0-1.3.9.9,0,0,0-.57-.57,1,1,0,0,0-.66-.05.74.74,0,0,0-.39.46,1,1,0,0,0,0,.6,1.56,1.56,0,0,0,.28.52c.13.17.28.35.44.54s.27.33.4.5a2.89,2.89,0,0,1,.3.58,2,2,0,0,1,.12.66,2.34,2.34,0,0,1-.15.79,1.86,1.86,0,0,1-.58.85,1.57,1.57,0,0,1-.86.35,2.5,2.5,0,0,1-1-.16A2.14,2.14,0,0,1,59,150a1.34,1.34,0,0,1-.24-.24.37.37,0,0,0-.16-.13.18.18,0,0,0-.16,0,.34.34,0,0,0-.13.19"/><path class="cls-1" d="M64.69,151.84l-2.5-.76.11-.39a1.35,1.35,0,0,0,.5.08.38.38,0,0,0,.27-.21,3.42,3.42,0,0,0,.22-.58l1-3.36a4.66,4.66,0,0,0,.13-.58.45.45,0,0,0-.11-.35,1,1,0,0,0-.44-.23l.11-.39,2.54.76-.12.39a1.28,1.28,0,0,0-.51-.06.4.4,0,0,0-.27.24,4,4,0,0,0-.21.56l-1,3.36a5.16,5.16,0,0,0-.14.59.32.32,0,0,0,.1.32,1.05,1.05,0,0,0,.44.21Z"/><path class="cls-1" d="M69.13,152.93l-2.64-.61.09-.4a1.51,1.51,0,0,0,.52.05.34.34,0,0,0,.26-.21,3,3,0,0,0,.2-.62l1-4.24-.35-.08a1.27,1.27,0,0,0-.66,0,.69.69,0,0,0-.4.34,5.35,5.35,0,0,0-.36.75l-.39-.09.52-1.83,4.68,1.09-.36,1.86-.38-.08a5.8,5.8,0,0,0,0-.84.74.74,0,0,0-.21-.48,1.39,1.39,0,0,0-.61-.27l-.34-.08-1,4.25a2.78,2.78,0,0,0-.1.64.35.35,0,0,0,.15.31,1.31,1.31,0,0,0,.46.17Z"/><path class="cls-1" d="M74.87,153.91l-2.73-.41.06-.4a2.63,2.63,0,0,0,.52,0,.35.35,0,0,0,.25-.21,2.66,2.66,0,0,0,.14-.6l.16-1.06-.74-2.33c-.1-.32-.18-.57-.26-.76a1.8,1.8,0,0,0-.21-.42.59.59,0,0,0-.2-.19l-.24-.07.06-.4,2.43.36-.06.4a.89.89,0,0,0-.41,0,.19.19,0,0,0-.11.15,1.23,1.23,0,0,0,.06.42L74,150l.19.81h0l1.3-2.15a.37.37,0,0,0,.08-.14l0-.15a.23.23,0,0,0,0-.18.68.68,0,0,0-.36-.12l.06-.41,1.77.26-.06.41a1.55,1.55,0,0,0-.38,0,.92.92,0,0,0-.31.18A3.46,3.46,0,0,0,76,149l-1.56,2.47-.16,1.06a1.79,1.79,0,0,0,0,.6.36.36,0,0,0,.2.28,1.84,1.84,0,0,0,.48.12Z"/><path class="cls-1" d="M81.2,154.56a2.53,2.53,0,0,1-1.4-.44A2.45,2.45,0,0,1,79,153a4.69,4.69,0,0,1-.23-1.79,4.41,4.41,0,0,1,.38-1.72,2.53,2.53,0,0,1,.93-1.08,2.39,2.39,0,0,1,1.42-.34,2.47,2.47,0,0,1,1.39.43,2.34,2.34,0,0,1,.84,1.12,4.12,4.12,0,0,1,.24,1.71,4.73,4.73,0,0,1-.38,1.79,2.47,2.47,0,0,1-.93,1.12,2.35,2.35,0,0,1-1.42.35m0-.49a1.11,1.11,0,0,0,1-.65,5.19,5.19,0,0,0,.42-2.14,6.12,6.12,0,0,0-.11-1.5,2.13,2.13,0,0,0-.45-.93,1,1,0,0,0-.73-.34,1.1,1.1,0,0,0-1,.66,4.55,4.55,0,0,0-.45,2,5.43,5.43,0,0,0,.26,2.11,1.12,1.12,0,0,0,1,.79"/><path class="cls-1" d="M87.64,154.4l-2.72.11,0-.41a1.31,1.31,0,0,0,.46-.08.35.35,0,0,0,.2-.25,1.57,1.57,0,0,0,0-.53l-.16-3.82a1.26,1.26,0,0,0-.08-.5.36.36,0,0,0-.22-.23,1.53,1.53,0,0,0-.46,0l0-.42,4.44-.19.13,1.76-.41,0c0-.23-.09-.42-.14-.57a.66.66,0,0,0-.19-.34.61.61,0,0,0-.35-.17,2.7,2.7,0,0,0-.61,0l-.94,0,.09,2.25.61,0a2.29,2.29,0,0,0,.54-.08.45.45,0,0,0,.27-.27,1.32,1.32,0,0,0,.07-.58h.37l.09,2.24h-.37a1.36,1.36,0,0,0-.11-.56.42.42,0,0,0-.3-.21,2.84,2.84,0,0,0-.54,0l-.61,0,.07,1.74a1.08,1.08,0,0,0,.1.48.37.37,0,0,0,.26.21,1.43,1.43,0,0,0,.5,0Z"/><path class="cls-1" d="M94.73,153.7l-2.59.41-.06-.41a1.55,1.55,0,0,0,.48-.14.37.37,0,0,0,.15-.3,3.34,3.34,0,0,0,0-.63l-.54-3.46a3.43,3.43,0,0,0-.13-.58.41.41,0,0,0-.23-.28,1.22,1.22,0,0,0-.52,0l-.06-.4,2.62-.41.07.41a1,1,0,0,0-.49.16.43.43,0,0,0-.15.33,3.75,3.75,0,0,0,0,.59l.22,1.43,2.27-.35-.22-1.43a3.29,3.29,0,0,0-.14-.58.42.42,0,0,0-.24-.26,1,1,0,0,0-.51,0l-.06-.4,2.64-.41.06.4a1.18,1.18,0,0,0-.49.17.43.43,0,0,0-.15.33,2.83,2.83,0,0,0,0,.59l.54,3.47a3.3,3.3,0,0,0,.14.61.35.35,0,0,0,.25.24,1.21,1.21,0,0,0,.5,0l.06.41-2.64.4-.06-.4A1.54,1.54,0,0,0,96,153a.34.34,0,0,0,.15-.31,3.2,3.2,0,0,0,0-.62l-.24-1.52-2.27.35.24,1.52a3.24,3.24,0,0,0,.14.62.3.3,0,0,0,.23.23,1.26,1.26,0,0,0,.48,0Z"/><path class="cls-1" d="M103.7,151.81l-4.39,1.1-.1-.4a1.27,1.27,0,0,0,.4-.16.37.37,0,0,0,.18-.27,1.57,1.57,0,0,0-.06-.52l-.93-3.68a2.32,2.32,0,0,0-.18-.52.34.34,0,0,0-.25-.19,1.32,1.32,0,0,0-.49.05l-.1-.41,4.31-1.08.46,1.67-.39.1a2.72,2.72,0,0,0-.31-.62.59.59,0,0,0-.4-.26,1.63,1.63,0,0,0-.66.06l-1,.26.54,2.13.68-.17a2.76,2.76,0,0,0,.55-.19.29.29,0,0,0,.17-.27,1.87,1.87,0,0,0-.08-.54l.36-.09.54,2.14-.36.09a2.44,2.44,0,0,0-.2-.56.31.31,0,0,0-.28-.17,2.15,2.15,0,0,0-.57.09l-.69.17.58,2.31.91-.23a2.58,2.58,0,0,0,.6-.21.85.85,0,0,0,.35-.29,1,1,0,0,0,.15-.45,4.22,4.22,0,0,0,0-.67l.37-.1Z"/><path class="cls-1" d="M106.34,151l-1.7.59-.14-.39a.59.59,0,0,0,.3-.18.71.71,0,0,0,.13-.34,4.82,4.82,0,0,0,0-.61v-5.28l.78-.27,3.25,4.18a2.39,2.39,0,0,0,.54.53.54.54,0,0,0,.5.07l.13.39-2.39.83-.14-.39.19-.08a.34.34,0,0,0,.15-.14.28.28,0,0,0,0-.22,1.34,1.34,0,0,0-.15-.29,2.71,2.71,0,0,0-.24-.35l-.43-.59-.14-.21-1.52-2.13h0l0,2.64,0,.26,0,.87c0,.08,0,.18,0,.28a1.06,1.06,0,0,0,.06.28c0,.14.12.22.21.23a1.07,1.07,0,0,0,.41-.07Zm1-2.47-1.93.67,0-.52,1.66-.57Z"/><path class="cls-1" d="M115.08,147.48,111,149.31l-.17-.38a1.08,1.08,0,0,0,.42-.26.34.34,0,0,0,.09-.31,3,3,0,0,0-.19-.54l-1.48-3.33a3.05,3.05,0,0,0-.27-.5.36.36,0,0,0-.3-.17,1,1,0,0,0-.48.12l-.17-.37,2.46-1.1.17.38a1.22,1.22,0,0,0-.43.28.42.42,0,0,0-.09.35,3.25,3.25,0,0,0,.19.54l1.54,3.46c.09.22.19.34.3.37a.73.73,0,0,0,.47-.1l.44-.19a1.82,1.82,0,0,0,.47-.29.69.69,0,0,0,.24-.35,1.32,1.32,0,0,0,0-.5,5,5,0,0,0-.12-.71l.37-.16Z"/><path class="cls-1" d="M118.91,145.46l-2.39,1.28-.19-.36a1.63,1.63,0,0,0,.42-.3.39.39,0,0,0,.06-.34,3.56,3.56,0,0,0-.26-.59l-2.06-3.84-.32.17a1.33,1.33,0,0,0-.51.42.67.67,0,0,0-.08.51,5.28,5.28,0,0,0,.23.81l-.35.18-.82-1.71,4.24-2.27,1,1.63-.35.19a5.82,5.82,0,0,0-.55-.63.71.71,0,0,0-.47-.22,1.28,1.28,0,0,0-.64.2l-.31.16,2.07,3.84a2.18,2.18,0,0,0,.35.54.33.33,0,0,0,.31.14,1.28,1.28,0,0,0,.47-.18Z"/><path class="cls-1" d="M123,143l-2.19,1.46-.22-.35a1.24,1.24,0,0,0,.37-.33.35.35,0,0,0,0-.33,3.09,3.09,0,0,0-.31-.55l-1.94-2.92a4,4,0,0,0-.36-.47.42.42,0,0,0-.33-.15,1.13,1.13,0,0,0-.47.21l-.23-.34,2.21-1.48.23.35a1,1,0,0,0-.37.36.36.36,0,0,0,0,.35,4,4,0,0,0,.3.52l.8,1.2,1.9-1.27-.8-1.2a3.27,3.27,0,0,0-.36-.47.41.41,0,0,0-.33-.14.93.93,0,0,0-.47.2l-.23-.34,2.23-1.48.22.34a1.05,1.05,0,0,0-.37.36.38.38,0,0,0,0,.36,3.32,3.32,0,0,0,.29.52l2,2.92a3.12,3.12,0,0,0,.38.49.35.35,0,0,0,.33.11,1.28,1.28,0,0,0,.45-.22l.23.35-2.23,1.48-.22-.34a1.48,1.48,0,0,0,.38-.34.34.34,0,0,0,0-.34,3.41,3.41,0,0,0-.31-.54l-.85-1.28-1.91,1.27.85,1.28a4.14,4.14,0,0,0,.38.5.34.34,0,0,0,.31.12,1.3,1.3,0,0,0,.44-.21Z"/><path class="cls-1" d="M128.56,139.06l-.26.22-1.38-1.53.3-.26a4.33,4.33,0,0,0,.82.54,1,1,0,0,0,.58.11,1.09,1.09,0,0,0,.49-.25,1.33,1.33,0,0,0,.31-.37.76.76,0,0,0-.1-.92,1.28,1.28,0,0,0-.56-.41,1.62,1.62,0,0,0-.62-.06,5.37,5.37,0,0,0-.67.09,5.83,5.83,0,0,1-.82.08,1.64,1.64,0,0,1-.78-.14,2,2,0,0,1-.76-.6,1.71,1.71,0,0,1-.41-.82,1.4,1.4,0,0,1,.12-.8,2.13,2.13,0,0,1,.6-.74,2,2,0,0,1,.41-.28l.32-.12a.51.51,0,0,0,.21-.09.41.41,0,0,0,.08-.13.28.28,0,0,0,0-.2l.23-.2,1.33,1.51-.28.24a2.87,2.87,0,0,0-1.14-.63.91.91,0,0,0-.78.21.93.93,0,0,0-.37.54.71.71,0,0,0,.2.57,1,1,0,0,0,.5.34,1.5,1.5,0,0,0,.6,0c.21,0,.44-.06.68-.11s.42-.07.64-.09a2.74,2.74,0,0,1,.64,0,2.24,2.24,0,0,1,.64.23,2.44,2.44,0,0,1,.61.53,1.89,1.89,0,0,1,.45.92,1.64,1.64,0,0,1-.13.92,2.42,2.42,0,0,1-.66.83,1.92,1.92,0,0,1-.5.32,1,1,0,0,1-.33.09.42.42,0,0,0-.19.07.16.16,0,0,0-.06.16.3.3,0,0,0,.09.2"/><path class="cls-1" d="M133.63,134.5a2.37,2.37,0,0,1-1.29.7A2.5,2.5,0,0,1,131,135a4.78,4.78,0,0,1-1.34-1,4.39,4.39,0,0,1-1.05-1.55,2.55,2.55,0,0,1-.11-1.46,2.61,2.61,0,0,1,.73-1.24,2.3,2.3,0,0,1,.53-.41,2,2,0,0,1,.38-.15.67.67,0,0,0,.24-.12.19.19,0,0,0,0-.21.72.72,0,0,0-.09-.2l.24-.24,1.65,1.68-.27.27a2.87,2.87,0,0,0-1.34-.6,1.17,1.17,0,0,0-1,.36,1.13,1.13,0,0,0-.31,1.22,4.09,4.09,0,0,0,1.09,1.6,4.47,4.47,0,0,0,1.14.91,1.48,1.48,0,0,0,.95.19,1.64,1.64,0,0,0,.84-.46,1.69,1.69,0,0,0,.5-.85,3,3,0,0,0,0-1h.37a7.43,7.43,0,0,1,.18,1,2.16,2.16,0,0,1-.09.91,2.33,2.33,0,0,1-.6.89"/><path class="cls-1" d="M137.52,130.16l-1.73,2-.31-.27a1.59,1.59,0,0,0,.28-.43.36.36,0,0,0-.08-.32,3,3,0,0,0-.44-.44l-2.63-2.33a2.68,2.68,0,0,0-.47-.36.42.42,0,0,0-.36,0,1.06,1.06,0,0,0-.39.31l-.31-.27,1.75-2,.31.27a1.08,1.08,0,0,0-.26.45.38.38,0,0,0,.1.34,3.84,3.84,0,0,0,.41.42l2.63,2.33a3.94,3.94,0,0,0,.48.37.36.36,0,0,0,.34,0,1.27,1.27,0,0,0,.37-.31Z"/><path class="cls-1" d="M140.91,125.86l-2.76,3.59-.33-.25a1.63,1.63,0,0,0,.23-.37.4.4,0,0,0,0-.32,1.41,1.41,0,0,0-.37-.38l-3-2.31a1.73,1.73,0,0,0-.46-.29.31.31,0,0,0-.32,0,1.07,1.07,0,0,0-.34.34l-.34-.26,2.71-3.52,1.4,1-.24.32a2.62,2.62,0,0,0-.64-.29.59.59,0,0,0-.47,0,1.65,1.65,0,0,0-.48.46l-.64.83,1.74,1.34.43-.56a2.59,2.59,0,0,0,.32-.49.29.29,0,0,0,0-.31,1.86,1.86,0,0,0-.4-.38l.23-.29,1.75,1.35-.23.29a2.59,2.59,0,0,0-.49-.32.35.35,0,0,0-.34,0,2.55,2.55,0,0,0-.39.43l-.43.55,1.89,1.46.57-.74a2.75,2.75,0,0,0,.34-.55.72.72,0,0,0,.09-.44,1.09,1.09,0,0,0-.15-.45c-.1-.15-.23-.34-.4-.55l.23-.3Z"/><path class="cls-1" d="M144.49,120.46l-.48.77-5.79-.06-.15.25-.53,0a1.28,1.28,0,0,0-.42,0,.52.52,0,0,0-.26.12.88.88,0,0,0-.18.23l-.35-.22,1-1.61,5.29,0,0,0-2.42-1.52a4.16,4.16,0,0,0-.57-.31.66.66,0,0,0-.46-.07.68.68,0,0,0-.41.36l-.35-.22,1-1.68.35.21a.7.7,0,0,0-.13.5.75.75,0,0,0,.27.39,5.85,5.85,0,0,0,.53.37Zm-1.79,2.72-1,1.68-.35-.21a.51.51,0,0,0,0-.54,1.84,1.84,0,0,0-.46-.54,7.21,7.21,0,0,0-.73-.52l-2.81-1.76.27-.45L141,123a3.76,3.76,0,0,0,.64.34.47.47,0,0,0,.39,0,1,1,0,0,0,.32-.34Z"/><path class="cls-1" d="M146.57,116.58a2.21,2.21,0,0,1-2.37,1.32,4.46,4.46,0,0,1-1.59-.49,4.33,4.33,0,0,1-1.5-1.12,2.39,2.39,0,0,1-.58-1.34,2.56,2.56,0,0,1,.28-1.41,2.08,2.08,0,0,1,.36-.56,1.68,1.68,0,0,1,.31-.27.59.59,0,0,0,.19-.2.18.18,0,0,0,0-.21.71.71,0,0,0-.15-.15l.15-.31,2.11,1-.17.34a3,3,0,0,0-1.47-.12,1.19,1.19,0,0,0-.85.68,1.12,1.12,0,0,0,.11,1.25,4.24,4.24,0,0,0,1.55,1.16,5.07,5.07,0,0,0,1.38.48,1.49,1.49,0,0,0,1-.13,1.6,1.6,0,0,0,.64-.71,1.72,1.72,0,0,0,.2-1,3.13,3.13,0,0,0-.32-1l.35-.1a7.41,7.41,0,0,1,.49.85,2.28,2.28,0,0,1,.21.89,2.17,2.17,0,0,1-.27,1"/><path class="cls-1" d="M149.57,109.19l-1.63,4.23-.38-.15a1.38,1.38,0,0,0,.1-.42.35.35,0,0,0-.12-.3,1.34,1.34,0,0,0-.46-.25l-3.54-1.36a2,2,0,0,0-.53-.15.35.35,0,0,0-.31.1,1.53,1.53,0,0,0-.23.42l-.39-.15,1.59-4.14,1.63.57-.14.38a2.92,2.92,0,0,0-.69-.1.6.6,0,0,0-.44.17,1.58,1.58,0,0,0-.33.59l-.38,1,2.06.79.25-.66a2.45,2.45,0,0,0,.16-.55.32.32,0,0,0-.12-.3,2.46,2.46,0,0,0-.49-.24l.13-.35,2.06.79-.13.35a2.1,2.1,0,0,0-.57-.16.3.3,0,0,0-.3.13,1.89,1.89,0,0,0-.26.52l-.25.65,2.22.86.33-.87a2.41,2.41,0,0,0,.18-.62.83.83,0,0,0,0-.45,1.07,1.07,0,0,0-.28-.38,3.77,3.77,0,0,0-.53-.42l.14-.35Z"/><path class="cls-1" d="M150.16,107.74l-.1.32-2-.51.11-.38a5.25,5.25,0,0,0,1,0,1,1,0,0,0,.54-.24,1,1,0,0,0,.28-.48A1.57,1.57,0,0,0,150,106a.72.72,0,0,0-.59-.7,1.21,1.21,0,0,0-.7,0,1.59,1.59,0,0,0-.55.28,5.21,5.21,0,0,0-.5.45c-.21.19-.43.36-.64.52a1.92,1.92,0,0,1-.73.32,2.13,2.13,0,0,1-1-.09,1.74,1.74,0,0,1-.79-.46,1.31,1.31,0,0,1-.34-.73,2.12,2.12,0,0,1,.09-1,1.82,1.82,0,0,1,.19-.46,2.37,2.37,0,0,1,.2-.27.62.62,0,0,0,.12-.2.33.33,0,0,0,0-.14.27.27,0,0,0-.15-.15l.08-.29,1.94.52-.1.36a2.87,2.87,0,0,0-1.3.1,1,1,0,0,0-.54.6.93.93,0,0,0,0,.66.75.75,0,0,0,.48.37,1,1,0,0,0,.6,0,1.52,1.52,0,0,0,.51-.31l.51-.47a4.91,4.91,0,0,1,.48-.43,2.2,2.2,0,0,1,.55-.34,2,2,0,0,1,.66-.16,2.28,2.28,0,0,1,.79.1,1.9,1.9,0,0,1,.89.52,1.63,1.63,0,0,1,.39.84,2.31,2.31,0,0,1-.09,1.06,2,2,0,0,1-.23.54,1.6,1.6,0,0,1-.23.26.44.44,0,0,0-.12.17.17.17,0,0,0,0,.16.39.39,0,0,0,.19.12"/><path class="cls-1" d="M19,59a.13.13,0,0,1-.18.08l-1.1-.43c-.09,0-.11-.09-.08-.18l.41-1.07a.13.13,0,0,1,.18-.08l1.1.43a.12.12,0,0,1,.08.18Zm.64-1.66a.13.13,0,0,1-.18.08L18.39,57a.12.12,0,0,1-.08-.17l.41-1.08a.12.12,0,0,1,.18-.07l1.11.42c.09,0,.11.09.08.18Zm1.85-.18L21,57a.12.12,0,0,1-.08-.18l.45-1.17a.11.11,0,0,1,.17-.08l4.13,1.58a.78.78,0,0,0,.58.06.71.71,0,0,0,.33-.41l.18-.49c.13-.34.41-.43.84-.26.26.1.41.2.46.32a.54.54,0,0,1,0,.43l-.4,1a2.06,2.06,0,0,1-.59.89,1.28,1.28,0,0,1-1,.17,1.78,1.78,0,0,1,.11.77,2.37,2.37,0,0,1-.18.82,3.36,3.36,0,0,1-.5.89,2.29,2.29,0,0,1-.73.59,2.18,2.18,0,0,1-.94.24,3.14,3.14,0,0,1-1.17-.23,3.41,3.41,0,0,1-1.15-.69,2.22,2.22,0,0,1-.58-.86,2.28,2.28,0,0,1-.12-1,3.46,3.46,0,0,1,.22-1Zm3.27,2.63a1.25,1.25,0,0,0,0-1,1.64,1.64,0,0,0-.91-.69l-1.08-.41-.44,1.13a1.43,1.43,0,0,0-.05,1,1.39,1.39,0,0,0,.9.73,1.2,1.2,0,0,0,1,0,1.32,1.32,0,0,0,.6-.73"/><path class="cls-1" d="M28.12,56.79a.44.44,0,0,1-.29.28.79.79,0,0,1-.5-.12,1.28,1.28,0,0,1-.48-.33.44.44,0,0,1,0-.41l.69-1.48a.54.54,0,0,1,.32-.31.81.81,0,0,1,.53.1q.39.18.45.36a.58.58,0,0,1-.06.43Z"/><path class="cls-1" d="M29.49,52.46a1,1,0,0,1,.22.76,2.89,2.89,0,0,1-.35,1l-.6,1.13a.56.56,0,0,1-.31.3.69.69,0,0,1-.52-.13.91.91,0,0,1-.43-.37.51.51,0,0,1,.05-.44l.42-.79a.76.76,0,0,0,.11-.37.37.37,0,0,0-.12-.27,1.28,1.28,0,0,0-.32-.26l-.54-.3-2.51-1.33a.09.09,0,0,1-.06-.11.33.33,0,0,1,0-.15l.54-1a.13.13,0,0,1,.19-.06l2.94,1.55a.71.71,0,0,0,.69,0,1.43,1.43,0,0,0,.58-.63l.11-.21a.51.51,0,0,1,.33-.29.78.78,0,0,1,.51.12.86.86,0,0,1,.43.37.51.51,0,0,1-.06.44,3.1,3.1,0,0,1-.55.76,1.12,1.12,0,0,1-.8.29m2,3.43a.12.12,0,0,1-.19,0l-1.05-.55a.12.12,0,0,1-.05-.19l.53-1a.13.13,0,0,1,.19-.06l1.05.56a.12.12,0,0,1,.06.18Zm.83-1.57a.12.12,0,0,1-.19,0l-1-.55a.12.12,0,0,1-.05-.19l.53-1a.13.13,0,0,1,.19-.06l1.05.56a.12.12,0,0,1,.06.18Z"/><path class="cls-1" d="M27.05,48.29A3.65,3.65,0,0,1,27,47a3,3,0,0,1,.53-1.37,3.66,3.66,0,0,1,1.07-1.13,2.66,2.66,0,0,1,1.17-.41,2.93,2.93,0,0,1,1.2.16,5.47,5.47,0,0,1,1.18.6l.15.1.13.1a.77.77,0,0,0,.66,0,1.36,1.36,0,0,0,.61-.55l.13-.2a.54.54,0,0,1,.35-.26.76.76,0,0,1,.5.17.85.85,0,0,1,.39.41.49.49,0,0,1-.1.43,3,3,0,0,1-.68.76,1.17,1.17,0,0,1-.92.19,1.28,1.28,0,0,1,.14,1A3.15,3.15,0,0,1,33,48l-2.33,3.52a.49.49,0,0,1-.36.25.85.85,0,0,1-.52-.17.83.83,0,0,1-.37-.41.56.56,0,0,1,.11-.42l2-3a2.33,2.33,0,0,0,.27-.51.67.67,0,0,0,0-.39.71.71,0,0,0-.21-.33,2.94,2.94,0,0,0-.44-.34,3.72,3.72,0,0,0-.71-.37,1.91,1.91,0,0,0-.69-.13,1.43,1.43,0,0,0-.63.18,1.64,1.64,0,0,0-.55.56,1.85,1.85,0,0,0-.31.78,2.5,2.5,0,0,0,0,.82.12.12,0,0,1-.09.16l-1,.19c-.1,0-.16,0-.18-.08"/><path class="cls-1" d="M32.68,39.74a9.3,9.3,0,0,1,.54-1.42,5.73,5.73,0,0,1,.9-1.36,4.73,4.73,0,0,1,1.19-1,2.69,2.69,0,0,1,1.18-.34,2.52,2.52,0,0,1,1.16.24,5,5,0,0,1,1.13.75l.18.18.14.13a.73.73,0,0,0,.68.18,1.36,1.36,0,0,0,.71-.47l.15-.17a.5.5,0,0,1,.39-.2.7.7,0,0,1,.47.23.88.88,0,0,1,.33.47.54.54,0,0,1-.17.41,2.79,2.79,0,0,1-.81.65,1.18,1.18,0,0,1-1,0,1.32,1.32,0,0,1,0,1.1A5.63,5.63,0,0,1,39,40.36l-1.79,2-.31.33a3.11,3.11,0,0,1-.32.31l-.33.27a1.07,1.07,0,0,1-.31.17,1.12,1.12,0,0,1-.18.49,6,6,0,0,1-.38.49l-.76.85a.55.55,0,0,1-.37.22.72.72,0,0,1-.47-.24c-.22-.2-.34-.36-.35-.48a.58.58,0,0,1,.17-.41l.42-.47a.67.67,0,0,0,.18-.37.61.61,0,0,0-.1-.35,1.83,1.83,0,0,0-.29-.36l-.4-.37-2.1-1.86a.12.12,0,0,1,0-.19l.84-.95a.12.12,0,0,1,.19,0ZM35,38a4.94,4.94,0,0,0-.83,1.28,10.4,10.4,0,0,0-.49,1.32l1.38,1.23a2.39,2.39,0,0,1,.23.22,1.92,1.92,0,0,1,.18.22l2-2.23c.26-.29.46-.53.61-.72a1.15,1.15,0,0,0,.26-.52.63.63,0,0,0-.12-.47,3.36,3.36,0,0,0-.54-.57,2.69,2.69,0,0,0-.64-.45,1.23,1.23,0,0,0-.64-.15,1.47,1.47,0,0,0-.66.22A2.78,2.78,0,0,0,35,38"/><path class="cls-1" d="M41.62,37.69a.6.6,0,0,1-.39.18.79.79,0,0,1-.46-.31.9.9,0,0,1-.27-.49.5.5,0,0,1,.21-.39l.49-.45a.71.71,0,0,0,.27-.45.81.81,0,0,0-.26-.53L36.48,30a.12.12,0,0,1,0-.19l.93-.84a.13.13,0,0,1,.2,0l5,5.52a1.89,1.89,0,0,1,.6,1.21,1.54,1.54,0,0,1-.62,1.13Z"/><path class="cls-1" d="M42,26h1.26a.14.14,0,0,1,.14.14v9a.14.14,0,0,1-.14.14H42a.13.13,0,0,1-.13-.13v-9A.14.14,0,0,1,42,26Z" transform="translate(-9.79 33.59) rotate(-38.92)"/><path class="cls-1" d="M52.88,29.29a3.5,3.5,0,0,1-1.12.46,2.08,2.08,0,0,1-1.08-.08.84.84,0,0,1-.08.37,3.18,3.18,0,0,0-.16.32,1,1,0,0,0-.06.35,1.05,1.05,0,0,0,.16.46l1.19,1.94-1.31.8-1.33-2.19a2.09,2.09,0,0,1-.28-.68,1.49,1.49,0,0,1,0-.56A2.48,2.48,0,0,1,49,30c.08-.15.15-.29.21-.43a2.25,2.25,0,0,0,.13-.42.72.72,0,0,0-.07-.44,1.88,1.88,0,0,1-.16-.23,2.94,2.94,0,0,1-.17-.26,4.27,4.27,0,0,1-.56-1.32,2.29,2.29,0,0,1,0-1.11,2.19,2.19,0,0,1,.49-.91,3.63,3.63,0,0,1,.87-.72,3.9,3.9,0,0,1,1-.45,2.23,2.23,0,0,1,2,.48,4.21,4.21,0,0,1,.92,1.11,4.06,4.06,0,0,1,.54,1.27,2.34,2.34,0,0,1,0,1.09,2.21,2.21,0,0,1-.49.9,3.53,3.53,0,0,1-.88.73m-2.41-4a1.14,1.14,0,0,0-.61.87,2,2,0,0,0,.36,1.21,1.94,1.94,0,0,0,.92.9,1.17,1.17,0,0,0,1-.18,1.14,1.14,0,0,0,.62-.83,2,2,0,0,0-.37-1.23c-.58-.93-1.22-1.18-2-.74"/><path class="cls-1" d="M58.42,29.3a.12.12,0,0,1-.18-.06l-.45-1a.13.13,0,0,1,.07-.18l1.46-.66a2.54,2.54,0,0,0,.47-.28.87.87,0,0,0,.26-.35,1,1,0,0,0,0-.48,2.59,2.59,0,0,0-.22-.67l-1.25.57a4,4,0,0,1-1.1.33,1.82,1.82,0,0,1-1-.08,2.27,2.27,0,0,1-.84-.58,4.66,4.66,0,0,1-1.09-2.51,2.74,2.74,0,0,1,.17-1.14,2.42,2.42,0,0,1,.58-.87,3.32,3.32,0,0,1,.91-.59,3.63,3.63,0,0,1,1.09-.32,2.18,2.18,0,0,1,1,.11,2.25,2.25,0,0,1,.91.61,4.29,4.29,0,0,1,.76,1.19l.64,1.4.86-.39a.55.55,0,0,1,.43,0,.76.76,0,0,1,.34.41.9.9,0,0,1,.12.58.64.64,0,0,1-.33.29l-.86.39.12.27a2.35,2.35,0,0,1,.18,2,2.64,2.64,0,0,1-1.47,1.31ZM56.86,22a1.12,1.12,0,0,0-.69.82,2,2,0,0,0,.19,1.27c.24.52.5.83.8.92a1.41,1.41,0,0,0,1-.13l1.11-.5L58.67,23a2.1,2.1,0,0,0-.77-1,1.1,1.1,0,0,0-1,0"/><path class="cls-1" d="M62.13,23.23a.62.62,0,0,0,.42-.31.79.79,0,0,0,0-.58L60.2,15.66a.12.12,0,0,1,.08-.17l1.19-.42c.09,0,.14,0,.17.09l2.28,6.56a.72.72,0,0,0,.5.49,1.36,1.36,0,0,0,.85-.07l.22-.07a.51.51,0,0,1,.44,0,.73.73,0,0,1,.29.44.83.83,0,0,1,.06.56.52.52,0,0,1-.34.28,3.1,3.1,0,0,1-.92.18,1.1,1.1,0,0,1-.78-.34,1.14,1.14,0,0,1-.34.7,2.49,2.49,0,0,1-.87.47L62,24.74a.54.54,0,0,1-.43,0c-.12-.05-.22-.21-.32-.49a.87.87,0,0,1-.05-.53.6.6,0,0,1,.35-.28Z"/><path class="cls-1" d="M68,16.68a3.67,3.67,0,0,1,2.37,0A1.9,1.9,0,0,1,71.47,18a2.25,2.25,0,0,1,.06.77,2.88,2.88,0,0,1-.17.73,3,3,0,0,1-.32.65,4.69,4.69,0,0,1-.39.52.75.75,0,0,0,.24,0l.27-.06,1.66-.41a.47.47,0,0,1,.45.06,1.1,1.1,0,0,1,.24.51.73.73,0,0,1,0,.54.54.54,0,0,1-.36.22l-2,.48a4.28,4.28,0,0,1-.92.14,2.72,2.72,0,0,1-.9-.12,3.18,3.18,0,0,1-.85.55,4.87,4.87,0,0,1-.85.3l-1.91.47a.53.53,0,0,1-.42,0,.73.73,0,0,1-.26-.46,1.39,1.39,0,0,1,0-.55c0-.13.16-.22.39-.28L67,21.63l.48-.14a3.81,3.81,0,0,0,.59-.25,2.72,2.72,0,0,0-.47-.68,2.93,2.93,0,0,0-.54-.47,3.7,3.7,0,0,0-.59-.31l-.62-.25a.47.47,0,0,1-.21-.15,1.07,1.07,0,0,1-.07-.19l-.2-.84c0-.09,0-.22.17-.37a2.77,2.77,0,0,1,.59-.48A6.65,6.65,0,0,1,67,17,6,6,0,0,1,68,16.68m1.18,4a5.22,5.22,0,0,0,.36-.42,2.76,2.76,0,0,0,.28-.5,2.21,2.21,0,0,0,.16-.54,1.39,1.39,0,0,0,0-.54.81.81,0,0,0-.58-.67,2.24,2.24,0,0,0-1,0,3.61,3.61,0,0,0-.9.33,2.4,2.4,0,0,0-.49.32,3.64,3.64,0,0,1,1.29.74,4.5,4.5,0,0,1,.95,1.24"/><path class="cls-1" d="M73.42,20.19a.63.63,0,0,0,.46-.23.77.77,0,0,0,.08-.58l-1-7c0-.09,0-.14.11-.16l1.25-.18a.12.12,0,0,1,.15.12l1,6.86a.75.75,0,0,0,.4.58,1.44,1.44,0,0,0,.85.09l.23,0a.51.51,0,0,1,.43.09.83.83,0,0,1,.21.49.85.85,0,0,1,0,.56.53.53,0,0,1-.39.21,3,3,0,0,1-.94,0,1.1,1.1,0,0,1-.7-.48,1.11,1.11,0,0,1-.47.62,2.42,2.42,0,0,1-.93.3L73,21.64a.6.6,0,0,1-.42-.07.83.83,0,0,1-.22-.55.78.78,0,0,1,0-.53.53.53,0,0,1,.39-.2Z"/><path class="cls-1" d="M77,21a.55.55,0,0,1-.42-.09.78.78,0,0,1-.18-.52.84.84,0,0,1,.09-.55.49.49,0,0,1,.4-.2l.66-.05a.72.72,0,0,0,.49-.2.86.86,0,0,0,.11-.58l-.6-7c0-.09,0-.14.13-.15l1.25-.1a.12.12,0,0,1,.15.12l.62,7.41a1.94,1.94,0,0,1-.25,1.33,1.55,1.55,0,0,1-1.18.52Z"/><path class="cls-1" d="M88,14.85l0-.58a.12.12,0,0,1,.14-.13l1.26,0c.09,0,.13.05.13.14l-.2,4.42a.8.8,0,0,0,.14.57.63.63,0,0,0,.49.17l.52,0c.36,0,.53.25.51.71a.79.79,0,0,1-.15.54.57.57,0,0,1-.42.11l-1.11-.05a2,2,0,0,1-1-.27,1.24,1.24,0,0,1-.47-.86,1.8,1.8,0,0,1-.69.35,2.93,2.93,0,0,1-.84.09,3.23,3.23,0,0,1-1-.19,2.26,2.26,0,0,1-.8-.5,2.4,2.4,0,0,1-.52-.83,3,3,0,0,1-.15-1.17,3.3,3.3,0,0,1,.29-1.32,2.12,2.12,0,0,1,.63-.82,2.05,2.05,0,0,1,.88-.42,3.65,3.65,0,0,1,1-.1Zm-2.53-1.78a.12.12,0,0,1-.13-.14l0-1.19c0-.09.05-.13.14-.13l1.15.05a.13.13,0,0,1,.13.15l0,1.18c0,.09,0,.14-.14.13Zm1.07,5.71a1.2,1.2,0,0,0,1-.33,1.66,1.66,0,0,0,.36-1.08l.05-1.15-1.21,0a1.16,1.16,0,0,0-1.36,1.34,1.16,1.16,0,0,0,.29.93,1.24,1.24,0,0,0,.88.34m.7-5.63c-.09,0-.13-.05-.13-.14l.06-1.19c0-.09.05-.13.14-.13l1.15.05c.09,0,.13,0,.13.15l-.06,1.18a.12.12,0,0,1-.14.13Z"/><path class="cls-1" d="M90.39,21q-.28,0-.36-.18a.88.88,0,0,1,0-.52,1.18,1.18,0,0,1,.15-.55.44.44,0,0,1,.4-.11l1.63.19a.53.53,0,0,1,.39.2.75.75,0,0,1,.08.53c0,.29-.1.47-.2.54a.56.56,0,0,1-.43.09Z"/><path class="cls-1" d="M94.94,20.9a1.08,1.08,0,0,1-.66.45,2.88,2.88,0,0,1-1,0L92,21.13a.56.56,0,0,1-.38-.2.7.7,0,0,1-.06-.53,1,1,0,0,1,.22-.53.52.52,0,0,1,.44-.09l.88.14a.67.67,0,0,0,.38,0,.49.49,0,0,0,.23-.2,1.55,1.55,0,0,0,.14-.39c0-.16.07-.36.11-.61l.46-2.79a.11.11,0,0,1,.09-.1h.16L95.8,16a.12.12,0,0,1,.11.15l-.54,3.29a.71.71,0,0,0,.2.66,1.35,1.35,0,0,0,.78.35l.23,0a.5.5,0,0,1,.38.22.76.76,0,0,1,.05.52.91.91,0,0,1-.21.53.56.56,0,0,1-.44.08,2.91,2.91,0,0,1-.89-.28,1.07,1.07,0,0,1-.53-.67m-2.63,2.94a.12.12,0,0,1-.11-.16l.19-1.17a.12.12,0,0,1,.16-.11l1.13.18c.09,0,.13.07.11.16l-.19,1.17a.13.13,0,0,1-.16.12Zm1.75.29c-.09,0-.13-.07-.11-.16l.19-1.17c0-.09.07-.13.16-.11l1.13.18c.09,0,.13.07.11.16l-.19,1.17a.13.13,0,0,1-.16.12Z"/><path class="cls-1" d="M96.23,21.83a.79.79,0,0,1-.38-.18.48.48,0,0,1,0-.41,1.49,1.49,0,0,1,.26-.57.43.43,0,0,1,.47-.16l.65.15a.72.72,0,0,0,.52,0A.82.82,0,0,0,98,20.1l.78-3.36a.12.12,0,0,1,.16-.1l1.23.29a.12.12,0,0,1,.1.16L99.4,20.8A1.91,1.91,0,0,1,98.75,22a1.53,1.53,0,0,1-1.28.13Zm.59,2.81a.13.13,0,0,1-.11-.17L97,23.32a.12.12,0,0,1,.17-.11l1.27.3c.09,0,.13.07.1.16l-.26,1.16a.12.12,0,0,1-.17.1Z"/><path class="cls-1" d="M102.75,17.76a.13.13,0,0,1,.17-.09l1.21.37a.11.11,0,0,1,.09.16l-1,3.19a.71.71,0,0,0,.12.69,1.41,1.41,0,0,0,.72.44l.23.07a.54.54,0,0,1,.35.26.81.81,0,0,1,0,.53.87.87,0,0,1-.28.49.56.56,0,0,1-.45,0,3.43,3.43,0,0,1-.74-.31,1,1,0,0,1-.43-.52l-.08.25a5.64,5.64,0,0,1-.49,1.2,2.28,2.28,0,0,1-.65.77,1.7,1.7,0,0,1-.86.32,2.92,2.92,0,0,1-1.15-.16L99,25.31a.12.12,0,0,1-.09-.17l.32-1.05c0-.09.08-.12.17-.09l.28.09a1.17,1.17,0,0,0,.63,0,.77.77,0,0,0,.43-.29,2.6,2.6,0,0,0,.3-.58c.08-.24.17-.51.27-.83Z"/><path class="cls-1" d="M109.53,19.72a3.7,3.7,0,0,1,1.91,1.41,1.89,1.89,0,0,1,.09,1.7,2.45,2.45,0,0,1-.41.66,3.35,3.35,0,0,1-.57.5,3.51,3.51,0,0,1-.64.33,3.34,3.34,0,0,1-.62.19,1,1,0,0,0,.21.11l.26.11,1.58.64c.2.08.31.19.33.32a1,1,0,0,1-.1.55.78.78,0,0,1-.32.43.53.53,0,0,1-.42,0l-1.89-.77a4.36,4.36,0,0,1-.83-.44,2.39,2.39,0,0,1-.65-.62,3.5,3.5,0,0,1-1,0,5.94,5.94,0,0,1-.86-.26l-1.82-.75a.49.49,0,0,1-.32-.27.71.71,0,0,1,.07-.53,1.17,1.17,0,0,1,.28-.46q.15-.14.48,0l1.48.6.46.17a4,4,0,0,0,.64.15,3.36,3.36,0,0,0,0-.83,3.12,3.12,0,0,0-.17-.7,4.15,4.15,0,0,0-.29-.6c-.11-.19-.23-.38-.35-.56a.4.4,0,0,1-.09-.25.7.7,0,0,1,.06-.19l.32-.8c0-.09.16-.16.37-.2a2.49,2.49,0,0,1,.75,0,6.63,6.63,0,0,1,1,.15,6,6,0,0,1,1.07.33m-1.37,3.9a4.32,4.32,0,0,0,.54-.14,2.73,2.73,0,0,0,.52-.23,1.89,1.89,0,0,0,.44-.35,1.25,1.25,0,0,0,.31-.45.81.81,0,0,0-.08-.87A2.06,2.06,0,0,0,109,21a3.51,3.51,0,0,0-.92-.26,2.17,2.17,0,0,0-.59,0,3.56,3.56,0,0,1,.6,1.36,3.88,3.88,0,0,1,0,1.56"/><path class="cls-1" d="M110.62,26.64a.58.58,0,0,1-.31-.31.75.75,0,0,1,.12-.53,1,1,0,0,1,.37-.43.51.51,0,0,1,.44.06l.6.3a.63.63,0,0,0,.51.09.77.77,0,0,0,.4-.43L116,19.12a.12.12,0,0,1,.18-.06l1.12.58a.12.12,0,0,1,.06.18l-3.42,6.6a1.91,1.91,0,0,1-.92,1,1.55,1.55,0,0,1-1.28-.19Z"/><path class="cls-1" d="M115.93,29.38a.12.12,0,0,1-.19.05l-1.08-.64c-.08,0-.09-.1,0-.18l4.58-7.77a.11.11,0,0,1,.18-.05l1.09.64c.08,0,.09.1.05.18Z"/><path class="cls-1" d="M125.92,29.3l.36-.46a.13.13,0,0,1,.19,0l1,.77a.12.12,0,0,1,0,.19l-2.7,3.5a.76.76,0,0,0-.22.54.69.69,0,0,0,.3.43l.41.32c.29.22.29.52,0,.88s-.31.33-.44.35a.55.55,0,0,1-.41-.15l-.87-.68a1.92,1.92,0,0,1-.68-.82,1.16,1.16,0,0,1,.11-1,2.07,2.07,0,0,1-.77-.12,2.84,2.84,0,0,1-.74-.41,3.06,3.06,0,0,1-.7-.74,2.25,2.25,0,0,1-.37-.86,2.35,2.35,0,0,1,0-1,3.19,3.19,0,0,1,.55-1,3.62,3.62,0,0,1,1-.92,2.3,2.3,0,0,1,1-.3,2.12,2.12,0,0,1,1,.16,3.44,3.44,0,0,1,.87.5Zm-3.45,2.38a1.19,1.19,0,0,0,1,.29,1.64,1.64,0,0,0,.92-.67l.71-.91-1-.75a1.42,1.42,0,0,0-.92-.34,1.38,1.38,0,0,0-1,.66,1.17,1.17,0,0,0-.3.93,1.28,1.28,0,0,0,.53.79m2.41-5.29a.12.12,0,0,1,0-.19l.73-.94a.12.12,0,0,1,.19,0l.91.7a.13.13,0,0,1,0,.2l-.72.94a.13.13,0,0,1-.2,0Zm1.4,1.09a.13.13,0,0,1,0-.2l.72-.94a.13.13,0,0,1,.2,0l.9.7a.12.12,0,0,1,0,.19l-.73.94a.12.12,0,0,1-.19,0Z"/><path class="cls-1" d="M124.39,35.72a.44.44,0,0,1-.19-.36.84.84,0,0,1,.26-.44,1.11,1.11,0,0,1,.45-.36.43.43,0,0,1,.39.14l1.22,1.09a.53.53,0,0,1,.2.39.82.82,0,0,1-.24.48A.87.87,0,0,1,126,37a.54.54,0,0,1-.4-.18Z"/><path class="cls-1" d="M132.47,35.25a3.67,3.67,0,0,1,1.18,2,1.91,1.91,0,0,1-.6,1.59,2.37,2.37,0,0,1-.65.45,3.07,3.07,0,0,1-.71.22,3.49,3.49,0,0,1-.72,0,3.85,3.85,0,0,1-.64-.08.62.62,0,0,0,.14.19l.2.2,1.19,1.23a.48.48,0,0,1,.17.42,1,1,0,0,1-.32.46.75.75,0,0,1-.46.27.55.55,0,0,1-.38-.2l-1.41-1.46a4.45,4.45,0,0,1-.59-.74,2.43,2.43,0,0,1-.34-.83,2.89,2.89,0,0,1-.91-.46,4.77,4.77,0,0,1-.69-.58l-1.37-1.41a.58.58,0,0,1-.18-.39.79.79,0,0,1,.28-.45,1.23,1.23,0,0,1,.44-.31c.13,0,.28,0,.44.19l1.11,1.15c.11.11.22.22.36.34a5.39,5.39,0,0,0,.52.39,3.13,3.13,0,0,0,.35-.75,2.53,2.53,0,0,0,.13-.7,3.73,3.73,0,0,0,0-.67c0-.22-.06-.44-.1-.66a.41.41,0,0,1,0-.26l.13-.15.62-.6c.07-.07.21-.08.41,0a2.66,2.66,0,0,1,.71.27,6.92,6.92,0,0,1,1.69,1.27m-2.82,3a3,3,0,0,0,.54.1,2.8,2.8,0,0,0,.58,0,2,2,0,0,0,.54-.14,1.16,1.16,0,0,0,.46-.29.8.8,0,0,0,.28-.83,2.15,2.15,0,0,0-.56-.89,3.56,3.56,0,0,0-.74-.61,2.68,2.68,0,0,0-.52-.26,3.74,3.74,0,0,1,0,1.49,4.16,4.16,0,0,1-.58,1.44"/><path class="cls-1" d="M133.16,45.29a3.94,3.94,0,0,1-.6-1.09,2.07,2.07,0,0,1-.06-1.1,1.3,1.3,0,0,1-.49-.05,1.72,1.72,0,0,1-.41-.19,2.24,2.24,0,0,1-.34-.27l-.27-.31-.29-.38a.52.52,0,0,1-.12-.43,1.13,1.13,0,0,1,.85-.65.57.57,0,0,1,.36.25l.32.42a.93.93,0,0,0,.23.21.85.85,0,0,0,.33.09,1,1,0,0,0,.43-.07,1.84,1.84,0,0,0,.52-.29.87.87,0,0,1,.15-.13l.17-.13a3.87,3.87,0,0,1,1.2-.63,2.34,2.34,0,0,1,1.07-.08,2.37,2.37,0,0,1,.94.4,4,4,0,0,1,.8.79,3.61,3.61,0,0,1,.54,1,2.12,2.12,0,0,1,.13,1,2.23,2.23,0,0,1-.39,1,4.18,4.18,0,0,1-1,1,3.79,3.79,0,0,1-1.22.66,2.36,2.36,0,0,1-1.07.1,2.14,2.14,0,0,1-.95-.39,3.58,3.58,0,0,1-.83-.82m3.7-2.81a1.1,1.1,0,0,0-.92-.51,2,2,0,0,0-1.17.49,1.92,1.92,0,0,0-.8,1,1.14,1.14,0,0,0,.28,1,1.16,1.16,0,0,0,.9.55,2,2,0,0,0,1.18-.51c.87-.66,1-1.34.53-2"/><path class="cls-1" d="M143.36,43.75a.12.12,0,0,1,.19,0l.67,1.07a.11.11,0,0,1,0,.18l-6,3.77a.76.76,0,0,0-.39.43.66.66,0,0,0,.13.51l.25.4a.53.53,0,0,1,.09.44.85.85,0,0,1-.39.4.79.79,0,0,1-.53.18.57.57,0,0,1-.32-.29l-.58-.91a1.53,1.53,0,0,1-.29-1.25,1.91,1.91,0,0,1,.9-1Z"/><path class="cls-1" d="M135.94,54.25a.12.12,0,0,1,.06-.18l1.06-.54a.12.12,0,0,1,.18.06l.6,1.17a.12.12,0,0,1-.06.18l-1.05.54a.13.13,0,0,1-.19-.06Zm5.69-5.14a3.87,3.87,0,0,1,1.17.54,3.06,3.06,0,0,1,.93,1.13,3.69,3.69,0,0,1,.45,1.49,2.56,2.56,0,0,1-.22,1.22,2.82,2.82,0,0,1-.73,1,5.56,5.56,0,0,1-1.1.74l-.16.07a.61.61,0,0,0-.14.07.76.76,0,0,0-.36.56,1.42,1.42,0,0,0,.18.8l.11.21a.52.52,0,0,1,.05.43.77.77,0,0,1-.39.36.82.82,0,0,1-.55.13.53.53,0,0,1-.33-.3,3.09,3.09,0,0,1-.32-1,1.13,1.13,0,0,1,.29-.89,1.34,1.34,0,0,1-.9-.35,3,3,0,0,1-.66-.91L137,50.66a.52.52,0,0,1-.05-.43.84.84,0,0,1,.41-.37.86.86,0,0,1,.54-.13.59.59,0,0,1,.32.31l1.65,3.23a2.46,2.46,0,0,0,.31.49.77.77,0,0,0,.33.22.75.75,0,0,0,.39,0,3.41,3.41,0,0,0,.51-.22,3.47,3.47,0,0,0,.68-.44,1.68,1.68,0,0,0,.44-.53,1.29,1.29,0,0,0,.16-.64,1.72,1.72,0,0,0-.21-.76,1.92,1.92,0,0,0-.54-.65,2.32,2.32,0,0,0-.72-.36.13.13,0,0,1-.1-.17l.33-1c0-.09.09-.13.16-.11"/><path class="cls-1" d="M140.38,57.39a.55.55,0,0,1,0-.43c0-.12.19-.22.44-.32a.86.86,0,0,1,.55-.09.54.54,0,0,1,.31.33l.25.62a.67.67,0,0,0,.33.41.85.85,0,0,0,.58-.07l6.55-2.64a.12.12,0,0,1,.18.07l.47,1.17a.12.12,0,0,1-.07.18L143,59.4a1.91,1.91,0,0,1-1.35.14,1.54,1.54,0,0,1-.84-1Z"/><path class="cls-1" d="M142.62,62.94c-.09,0-.15,0-.17-.08L142,61.67a.13.13,0,0,1,.08-.18l8.54-2.9c.09,0,.14,0,.17.08l.41,1.19c0,.09,0,.14-.09.17Z"/><path class="cls-1" d="M84.22,48.47l20,8.87-2.89,1.27V57.34h-1.2v8.25h.19a.77.77,0,0,1-.18,1.52h0v1.8l1.32,3.45H97.67L99,68.91v-1.8h0a.77.77,0,0,1,0-1.54h0v-5.9l-4.12,1.82a22.16,22.16,0,0,0-10.65-2.63V60.1a20.82,20.82,0,0,1,10.42,2.67v7.47c-5.46-3.54-15.39-3.54-20.85,0V61.59l-9.63-4.25Z"/><path class="cls-1" d="M84.1,35.35A48.75,48.75,0,1,1,35.35,84.1,48.81,48.81,0,0,1,84.1,35.35m0-3.46A52.21,52.21,0,1,0,136.31,84.1,52.27,52.27,0,0,0,84.1,31.89"/><path class="cls-1" d="M48,92.9l-1.71,2.95H40.06l12-20h6.07l12,20H63.76L62,92.9Zm11.88-3.7L55,81,50.17,89.2Z"/><path class="cls-1" d="M95.63,75.81V89.18a6.37,6.37,0,0,1-2,4.65,7.27,7.27,0,0,1-5.41,2H78.8a7.38,7.38,0,0,1-5.41-2,6.37,6.37,0,0,1-2-4.65V75.81h5.51V88.37a2.67,2.67,0,0,0,.94,2.13,3.56,3.56,0,0,0,2.39.82h6.61a3.48,3.48,0,0,0,2.4-.82,2.66,2.66,0,0,0,.93-2.13V75.81Z"/><polygon class="cls-1" points="125.69 75.81 125.69 95.85 120.23 95.85 120.23 87.77 105.54 87.77 105.54 95.85 100.08 95.85 100.08 75.81 105.54 75.81 105.54 83.31 120.23 83.31 120.23 75.81 125.69 75.81"/><polygon class="cls-1" points="15.54 97.67 11.09 86.17 1.78 86.17 1.78 83.29 13.07 83.29 15.41 89.33 21.03 73.29 25.1 83.29 34.23 83.29 34.23 86.17 23.16 86.17 21.23 81.43 15.54 97.67"/><polygon class="cls-1" points="147.91 97.67 143.46 86.17 134.15 86.17 134.15 83.29 145.44 83.29 147.78 89.33 153.4 73.29 157.47 83.29 166.6 83.29 166.6 86.17 155.53 86.17 153.6 81.43 147.91 97.67"/></g></g></svg>
